<svg xmlns="http://www.w3.org/2000/svg" xmlns:xlink="http://www.w3.org/1999/xlink" viewBox="0 0 1014.79 495.11"><defs><style>.cls-1{fill:url(#linear-gradient);}.cls-2{fill:url(#linear-gradient-2);}.cls-3{fill:url(#linear-gradient-3);}.cls-4{fill:#983dff;}.cls-5{fill:#cec7ff;}.cls-6{fill:#e4e0ff;}.cls-7{fill:#993dff;}.cls-10,.cls-11,.cls-12,.cls-7,.cls-8,.cls-9{fill-rule:evenodd;}.cls-15,.cls-8{fill:#5712a6;}.cls-9{fill:#7d21e8;}.cls-10{fill:#e3e0ff;}.cls-11{fill:#b06bff;}.cls-12,.cls-18{fill:#fff;}.cls-13{fill:#ffabcd;}.cls-14{fill:#ed86ab;}.cls-16{fill:url(#linear-gradient-4);}.cls-17{fill:url(#linear-gradient-5);}.cls-19{fill:#cfc7ff;}</style><linearGradient id="linear-gradient" x1="752.41" y1="-1259.09" x2="-129.82" y2="-1575.87" gradientTransform="matrix(1, 0, 0, -1, 324, -1202.36)" gradientUnits="userSpaceOnUse"><stop offset="0" stop-color="#e4e0ff"/><stop offset="1" stop-color="#b06bff"/></linearGradient><linearGradient id="linear-gradient-2" x1="650.8" y1="-1405.3" x2="-124.87" y2="-1647.39" xlink:href="#linear-gradient"/><linearGradient id="linear-gradient-3" x1="486.53" y1="-1412.78" x2="-151.35" y2="-1590.61" xlink:href="#linear-gradient"/><linearGradient id="linear-gradient-4" x1="-107.89" y1="-1374.37" x2="-205.42" y2="-1522.8" gradientTransform="matrix(1, 0, 0, -1, 324, -1202.36)" gradientUnits="userSpaceOnUse"><stop offset="0" stop-color="#25e0f9"/><stop offset="1" stop-color="#b06bff"/></linearGradient><linearGradient id="linear-gradient-5" x1="-121.25" y1="-1392.83" x2="-211.65" y2="-1518.59" xlink:href="#linear-gradient-4"/></defs><g id="Layer_2" data-name="Layer 2"><g id="Layer_1-2" data-name="Layer 1"><path class="cls-1" d="M1014.16,0V323.93c-49.44,14.59-63.39-28.52-173.7,41.84S181.82,390.5,181.82,390.5l-8.24-169.26C580.56-237.09,711.14,382.89,1014.16,0Z"/><path class="cls-2" d="M263,325.2l-50.72-71.63,94.46-24.73s104.6-25.35,239,57.06c135,83,148.33,102.7,221.86,87.48,121.08-24.72,124.89-131.22,247.23-184.47V377.82S899.42,362,850,368.31C801.16,374.65,641.41,416.49,553.3,407S263,325.2,263,325.2Z"/><path class="cls-3" d="M1014.28,365.68V470.27C568,347.93,438.68,590.72,0,449.35V119.71c16.48,10.14,33.6,25.36,38.67,48.18C48.81,214.17,46.28,237,90,246.5c44.37,9.51,44.37,83,44.37,83l89.39-67.19L368.31,270l-33.6,31.69h44.38c162.92,4.44,170.52,140.1,408.25,75.44,102.69-27.89,226.94-10.78,226.94-10.78Z"/><path class="cls-4" d="M237.83,300.54l-1.9-1.9h-1.27c-.64.63-.64,1.26-1.27,1.9-.64,1.27-1.27,1.9-1.9,3.17h0a13.92,13.92,0,0,1-2.54,3.17c0,.63-.63.63-.63,1.27h0a.62.62,0,0,1-.63.63c0,.63-2.54,1.27-5.71,2.54-.63.63-1.9.63-3.17,1.26h0v1.9a12.85,12.85,0,0,1-1.9,7,13.92,13.92,0,0,1-2.54,3.17,12.9,12.9,0,0,1-9.51,3.8h-.63a104.72,104.72,0,0,1-8.88,5.7c-1.9,1.27-4.44,2.54-7,4.44-5.7,3.81-12,7.61-17.75,10.78-3.8,2.54-7.61,4.44-10.78,6.34a57.36,57.36,0,0,1-5.07,3.17c1.9-1.27,3.18-1.9,5.07-3.17,3.17-1.9,7-4.44,10.78-6.34a86.12,86.12,0,0,1-12.67,3.8c-2.54.64-4.44,1.27-5.08,1.27-3.8-.63-5.71-5.07-5.71-5.7v15.21c1.91-1.27,4.44-2.53,7-4.44l-7,12.05-.63,1.27-3.17,5.07-2.53,4.43c-10.15,16.49-20.92,8.88-20.92,8.88s-31.7-20.29-38.67-26.63h-.64a8.86,8.86,0,0,0,0,5.71c.64,1.27,1.27,3.17,3.18,4.44,7,6.34,38.66,26.62,38.66,26.62s11.41,7,20.92-8.87L157.32,369c13.94-8.24,38-22.82,49.44-31.06h.64A14.08,14.08,0,0,0,221.35,324v-1.9c4.43-1.27,8.24-3.17,8.87-3.8.63-1.27,5.07-7,7.61-10.78.63-1.27,1.26-1.9,1.26-2.53.64-1.27.64-3.17-1.9-5.71Zm-8.24,12.68h1.9"/><path class="cls-5" d="M125.4,150.87c-2.54-1.27-7-2.53-10.14-.63-5.08,2.54,1.26,5.71,4.43,4.44a41.82,41.82,0,0,0,7-2.54,26.93,26.93,0,0,0,4.44,3.81c-2.54-.64-7.61-1.91-10.78,0-5.07,3.16,1.9,5.7,5.07,3.8,2.53-1.27,5.71-2.54,7-3.17,1.9,2.53,4.44,4.44,6.34,7l.64.64c-1.91-1.27-7-4.44-11.42-3.17-5.7,1.9.64,5.7,3.81,5.07a51.91,51.91,0,0,1,8.24-1.27c5.71,8.24,10.14,17.12,11.41,26H152c-1.27-8.24-5.07-16.48-10.14-24.09.63-1.27,1.9-5.07,3.17-7,1.27-3.17-1.9-9.51-4.44-4.44-1.9,3.17-.63,7,0,9.51-.63-.63-.63-1.27-1.26-1.9-1.27-1.27-1.91-2.54-3.18-3.81.64-1.26,1.91-5.07,2.54-7,1.27-3.17-1.9-9.51-4.44-4.44-1.9,3.17-.63,7.61,0,10.15l-3.8-3.81c.64-1.26,1.27-5.07,1.9-7.6.63-3.17-2.53-9.51-5.07-3.81-1.27,3.81.63,8.24,1.9,10.15-1.27-1.27-3.17-2.54-4.44-4.44.64-1.27,1.27-5.07,1.91-7.61.63-3.17-3.17-9.51-5.08-3.8-1.26,3.8.64,8.24,1.91,10.77-1.27-.63-2.54-1.9-3.81-2.53v-7c0-3.17-4.43-7.6-5.07-2.53-.63,3.8,1.9,7,3.8,8.87-1.26-.63-1.9-1.26-3.16-1.9a13.15,13.15,0,0,0-10.15-3.17c-5.7,1.27,0,5.71,3.17,5.71,2.54,0,5.71-.64,7.61-.64,1.27.64,1.9,1.27,3.17,1.91-2.54-.64-5.71-1.91-8.24,0-4.44,2.53,1.27,5.07,3.8,3.8A66.14,66.14,0,0,0,121,147.7c1.27,1.27,3.17,2.54,4.44,3.81Z"/><path class="cls-5" d="M316.21,224.41s1.9-19.65-13.31-29.8l-.64-.63-7,4.44,3.8-6.34c-12-7.61-16.48-7-16.48-7S280.71,218.7,316.21,224.41Z"/><path class="cls-5" d="M258.52,189.54s-8.24-8.24-11.41-16.48a62.15,62.15,0,0,1-3.17-18.38s1.27,3.8,6.34,7c13.32,10.14,7.61,15.22,8.24,27.26Z"/><path class="cls-6" d="M269.3,306.82c-8.24-.63-12.68,0-18.39,6.34C250.91,313.16,264.86,315.06,269.3,306.82Z"/><path class="cls-6" d="M358.68,325.2s-8.87-3.17-15.21,2.54h0l2.53,2.53L342.2,329c-5.07,4.44-5.07,7-5.07,7s15.22,5.07,22.19-10.14Z"/><path class="cls-5" d="M118.42,192.71s1.27-14-9.51-21.55h-.63l-5.07,3.17,3.17-4.44c-8.87-5.7-12-5.07-12-5.07s-1.26,24.09,24.09,28.52Z"/><polygon class="cls-5" points="161.53 113.47 160.27 126.15 172.31 121.71 161.53 113.47"/><path class="cls-5" d="M349.81,185.74a3.8,3.8,0,1,1-3.81,3.8A3.8,3.8,0,0,1,349.81,185.74Z"/><path class="cls-7" d="M239.52,217l-1-5.93h38.63s16.61.54,30.36,5.27S352.71,239,352.71,239a173.44,173.44,0,0,1,24.45,7.17c12.32,4.74,14.88,7.91,14.88,7.91l-15.22,17.68s-89.32-10.13-98.34-18.27-39-36.49-39-36.49"/><path class="cls-8" d="M291,239.75l60.61,1.43S327.32,226.35,310,220.06s-55.22-4.84-55.22-4.84Z"/><path class="cls-8" d="M357.09,295.53l-6.85-2.88H171.35L247,235.83s67.63,5.66,76.1,18,33.95,41.71,33.95,41.71"/><path class="cls-8" d="M229.87,260.31c-.32,0-.64,0-1,0-8.59,0-15.6,9.13-15.6,20.33s7,20.33,15.6,20.33H237c8.62,0,15.61-9.1,15.61-20.33,0-10.8-6.47-19.64-14.64-20.29h0c-.31,0-.63,0-.95,0s-.64,0-1,0Z"/><path class="cls-8" d="M358.83,260.31c-.32,0-.64,0-.95,0-8.6,0-15.61,9.13-15.61,20.33s7,20.33,15.61,20.33H366c8.62,0,15.61-9.1,15.61-20.33,0-10.8-6.47-19.64-14.64-20.29h0c-.31,0-.63,0-.95,0s-.64,0-.95,0Z"/><polygon class="cls-8" points="146.86 271.26 146.86 289.48 190.57 289.48 190.57 255.09 154.39 255.09 146.86 271.26"/><path class="cls-8" d="M306,260.27c.32,0,.64,0,1,0h0c8.17.65,14.64,9.49,14.64,20.29,0,11.23-7,20.33-15.61,20.33H298l-3.56-6.77h0a25.11,25.11,0,0,1-.07-27h0l3.63-6.83h7.12c.31,0,.63,0,.95,0"/><path class="cls-9" d="M298,300.93c8.6,0,15.61-9.13,15.61-20.33s-7-20.33-15.61-20.33-15.61,9.13-15.61,20.33,7,20.33,15.61,20.33"/><path class="cls-10" d="M297.1,294.89c6,0,11-6.42,11-14.29s-4.93-14.29-11-14.29-11,6.41-11,14.29,4.93,14.29,11,14.29"/><path class="cls-8" d="M176,260.27c.32,0,.64,0,1,0h0c8.17.65,14.64,9.49,14.64,20.29,0,11.23-7,20.33-15.61,20.33h-8.07l-3.55-6.77h0a25.08,25.08,0,0,1-.08-27h0l3.63-6.83h7.12c.32,0,.63,0,.95,0"/><path class="cls-9" d="M167.93,300.93c8.6,0,15.61-9.13,15.61-20.33s-7-20.33-15.61-20.33-15.61,9.13-15.61,20.33,7,20.33,15.61,20.33"/><path class="cls-10" d="M167.08,294.89c6,0,11-6.42,11-14.29s-4.93-14.29-11-14.29-11,6.41-11,14.29,4.93,14.29,11,14.29"/><path class="cls-11" d="M190.05,289.48H280c-6.92-23.65,14.66-44,29.79-28.62,6.81,6.94,9.1,18.61,6.16,28.62h48.19c2.93-1.53,5.65-3.08,6.11-3.28,1.4-.6.91-5.23.91-7.17,0-3-1.45-5.15-4-7.66-5.63-5.63,4.79-10.41-10.56-18.09C347.37,248.66,315,241.8,301,238.11s-35.11-28.12-69.17-27.2-54.25,12.67-66.13,18.35-21.12,6.27-22.7,7.06-.13,4.42-2.71,7.59-2.38,5.68-2.38,5.68V268.2c0,5.55-3.49,8.84-2,14.32s8.61,7,8.61,7H150c-6.81-24.36,14.92-43.75,29.79-28.62,6.82,6.94,9.1,18.61,6.17,28.62Z"/><path class="cls-12" d="M356.58,254.41l-46.92-7.91s8.58,7,18.68,8.64S360,258.5,360,258.5Z"/><path class="cls-7" d="M353.48,289.48l12-7a3.1,3.1,0,0,0,1-3.83c-1.05-2.44-13.79-15-15.31-15.25s-12.67-.2-12.67-.2,6.6,13.27,6.27,14.59-2.91,4-4.88,5.28-12.21.93-12.21.93l8.44-21.65s.42-2.83,5.37-2.83,22,.65,22,.65l-5.1-6c-4.64-5.45,32-6.28,34.27.91l1.62,5.08s2.64,2.7,2.64,5.14-.3,14.53.1,15.65,1.91,3.5,1.52,4.82c-.26.88-3.46,2.59-6.18,3.65Z"/><path class="cls-8" d="M396.9,269.24,397,281c.41,1.16,1.72,3.17,1.57,4.57H360.23c8.09-4.67,10.24-4.14-2.06-16.14-5.36-5.22-6-6-8.53-6.1-.07,0,8.15-.09.12-.09,11.62,0,9.55-1,17.58,7.35,7.14,7.39,5.28,6.89,17,6.89,5.8,0,6.78-2.32,11.2-6.89Z"/><path class="cls-8" d="M178,244.8h7.67a1.23,1.23,0,1,1,0,2.45H178a1.23,1.23,0,0,1,0-2.45"/><path class="cls-8" d="M222.53,244.8h7.67a1.23,1.23,0,1,1,0,2.45h-7.67a1.23,1.23,0,0,1,0-2.45"/><path class="cls-8" d="M227.91,215.6c-2.59,8.8-2.83,17-3,24.46l53.4,2.43s1.48-1.87,1.65-5.83-14.42-14.38-25.8-18.72-26.23-2.34-26.23-2.34"/><path class="cls-11" d="M267.78,235.23s-3.08-4.46-6.21-5.36-7.82-1.08-9-.55c-5.68,2.45-3.13,9.6,3.13,9.6h10.45c.49,1.82.15,2.06,2.17,2.06,3.36,0,5.42.43,5.78-.8.19-.66-2.06-4.68-2.37-4.81s-3.93-.14-3.93-.14"/><path class="cls-8" d="M188.27,238.39A83.62,83.62,0,0,1,193,221.81c-4.19,1.42-5.49,1.71-9.59,3.45s-8.82,12.5-8.82,12.5Z"/><path class="cls-8" d="M195.69,221a83.49,83.49,0,0,0-5.1,17.52l25.72,1.17c.56-6,3.26-18.08,5.88-23.68a125.2,125.2,0,0,0-26.5,5"/><path class="cls-8" d="M141,242.89c6.54-.18,13-1.74,18.12-5.83L143,236.32c-1.42.71-.41,3.68-2,6.57"/><path class="cls-8" d="M343.27,273.43c-.88-2.05-2-4.46-2.94-6.41-1-2.15-1.83-3.77-1.83-3.77l-1.39-2.41a2.83,2.83,0,0,0-1,1.56l0,.11,1.09,4.05,2.12,7.93.14.52s1.29,3.06-2.34,4.81-9.41,4.23-9.41,4.23,10.22.39,12.21-.93a17.72,17.72,0,0,0,2.38-2,18,18,0,0,0,1.36-1.45,5.51,5.51,0,0,0,1.14-1.87c.11-.44-.56-2.23-1.5-4.41"/><path class="cls-8" d="M358.41,254.23l5.1,6H394.3l-1.55-4.87c-1.45,2-7.41,2.15-11.57,2.34-10,.46-22.77-3.46-22.77-3.46"/><path class="cls-8" d="M382.32,263.36c1.39,0,2.51,1.61,2.51,3.6s-1.12,3.6-2.51,3.6-2.51-1.61-2.51-3.6,1.13-3.6,2.51-3.6"/><path class="cls-13" d="M91.8,330.91,77.85,355c.35,4.37,4.05,2.72,6.28,1.07L77.85,355c-.63,1.26-1.89,5.07-.63,8.24.63,1.27,1.27,3.17,3.17,4.43,7,6.35,38.67,26.63,38.67,26.63s11.41,7,20.92-8.87l21.55-35.5-33-4.44Z"/><path class="cls-14" d="M218,307.45s-1.27,13.95-7,19-66.57,41.84-66.57,41.84l-27.89-90.65,83.68-44.38V239h8.24s2.54,0,3.17.63S210.34,265,210.34,265L204,292.87l3.16,3.17,11.42,12Z"/><path class="cls-13" d="M208.44,328.37c-12,8.88-64.66,39.94-64.66,39.94L137.44,348l6.34-14.57v7.6s1.27,5.7,5.71,6.34S207.81,328.37,208.44,328.37Z"/><path class="cls-13" d="M212.88,218.07,230,214.9a6.71,6.71,0,0,1,7,4.44c1.9,5.07,1.9,8.87-2.54,12S218,239.62,218,239.62l-5.07-22.19Z"/><path class="cls-15" d="M140.61,145.8h64a14.08,14.08,0,0,1,14,13.95V317.59a14.08,14.08,0,0,1-14,14h-64a14.06,14.06,0,0,1-13.94-14V159.75A14.06,14.06,0,0,1,140.61,145.8Z"/><path class="cls-16" d="M141.25,150.87h8.87v1.27a5.69,5.69,0,0,0,5.71,5.71h33a5.69,5.69,0,0,0,5.71-5.71v-1.27h8.87a9.34,9.34,0,0,1,9.51,9.51V317a9.34,9.34,0,0,1-9.51,9.51H141.25a9.34,9.34,0,0,1-9.51-9.51V160.38A9.34,9.34,0,0,1,141.25,150.87Z"/><path class="cls-17" d="M141.25,150.87h8.87v1.27a5.69,5.69,0,0,0,5.71,5.71h31.06a13.76,13.76,0,0,0,1.9,10.77c5.08,9.51,13.94,1.91,18.38,13.32,1.91,5.7,1.89,6.63,5.7,7.26V218c-8.25-15.85-19.64-30.32-41.2-39.83-15.84-7-27.26-15.85-34.86-25.35a7.2,7.2,0,0,1,5.07-1.91Zm71.57,82.61V249.7c-6.33-8.88-16.42-10.71-22.13,1.33-4.43,9.51,8.88,27.26,22.82,43.11v10.78a42.47,42.47,0,0,0-17.75-15.85C174.85,280.19,147,268.78,133,233.92a9.07,9.07,0,0,1-1.26-3.81V183.2a64.14,64.14,0,0,0,22.82,7.61c27.89,4.44,48.68,18.67,58.18,38.95Z"/><path class="cls-13" d="M119.06,206s-16.48,21.56-20.29,27.9S95,247.86,95,260.54V310s.63,10.77-3.8,20.28S82,347.76,82,347.76l61.16,23.08V306.19a74.69,74.69,0,0,0-9.51-33.6c-9.51-17.12-15.22-23.46-15.22-23.46L124.13,232c3.8-9.51,5-31.84-3.89-27.4Z"/><path class="cls-13" d="M129.2,366.41l14.58,5.7V331.54c0,.63,0,13.31-5.07,20.92C137.44,354.36,133.64,360.07,129.2,366.41Z"/><path class="cls-13" d="M217.32,247.86s-7.61,12.68-8.88,17.12.64,9.51,3.8,11.41c3.18,1.27,7.61,2.54,10.15.63s11.41-15.21,12-17.74c.63-1.91,1.27-5.71-1.9-8.25-2.53-2.53-6.34-5.07-7.61-6.34S219.22,244.06,217.32,247.86Z"/><path class="cls-13" d="M231.26,289.07s-28.53,15.85-31.06,17.75-1.9,7,0,9.51a5.53,5.53,0,0,0,5.07,2.54c1.9,0,20.92-5.71,21.55-7.62.64-1.26,8.24-11.4,8.88-13.31S236.33,293.5,231.26,289.07Z"/><path class="cls-13" d="M226.82,272s-11.4,7-14.58,10.15c-2.53,3.17-3.8,8.24-1.9,10.77s5.08,5.07,7.61,4.44c3.17-.64,15.85-7.61,17.11-8.88a7,7,0,0,0,1.91-7.6c-1.27-3.17-3.17-7-3.8-8.24s-4.44-2.54-7.61-.64Z"/><path class="cls-14" d="M231.26,291s-7.6,3.81-11.41,5.7l-.63-1.26,11.41-5.71Z"/><path class="cls-14" d="M217.32,277c3.16,0,4.44-1.26,5.7-3.8l.64-.63,1.26,1.26-.63.64c-1.9,2.53-3.17,4.44-7,3.8Z"/><polygon class="cls-14" points="107.01 245.96 118.42 248.5 117.79 249.77 106.38 247.23 107.01 245.96"/><path class="cls-14" d="M145.69,332.17s-3.81,7-13.95,13.32l-.63-1.27c10.14-6.34,13.3-12.68,13.94-12.68l1.27.63Z"/><path class="cls-18" d="M198.4,228.88a3.43,3.43,0,0,0-2.72,1.12v-1h-1.76v7.91h1.85v-4A2.1,2.1,0,0,1,198,230.5c1.18,0,1.88.68,1.88,2.09v4.29h1.85v-4.53c0-2.39-1.41-3.47-3.31-3.47m-25.93.09-2.54,5.86L167.48,229h-1.93l3.39,7.91h1.91l3.39-7.91Zm-9.91,7.91h1.85V229h-1.85Zm.94-9.21a1.13,1.13,0,0,0,1.18-1.15,1.1,1.1,0,0,0-1.18-1.07,1.11,1.11,0,1,0,0,2.22Zm-5.32,2.46V229h-1.76v7.91h1.85v-3.83a2.15,2.15,0,0,1,2.29-2.45,2.37,2.37,0,0,1,.43.05v-1.77A3.1,3.1,0,0,0,158.18,230.13Zm-11.89,5.12v-7.1h2.52c2.31,0,3.8,1.4,3.8,3.55s-1.49,3.55-3.8,3.55Zm-1.93,1.63h4.53c3.37,0,5.66-2.07,5.66-5.18s-2.29-5.18-5.66-5.18h-4.53Z"/><path class="cls-18" d="M178.6,230.37a2.17,2.17,0,0,1,2.19,1.61l-4.47.86h0a2.24,2.24,0,0,1,2.28-2.46m.34,5a2.4,2.4,0,0,1-2.4-1.4l6.05-1.18a3.81,3.81,0,0,0-4-4,3.92,3.92,0,0,0-4.07,4.05,4,4,0,0,0,4.36,4.06,4,4,0,0,0,3.17-1.29l-1-1.14A2.82,2.82,0,0,1,178.94,235.42Z"/><path class="cls-19" d="M187.92,235.4a2.48,2.48,0,1,1,2.36-2.47,2.3,2.3,0,0,1-2.36,2.47m0,1.59a4.06,4.06,0,1,0-4.2-4.06A4,4,0,0,0,187.92,237Z"/><path class="cls-12" d="M183.11,232.34a4.76,4.76,0,0,1,1.6-4,4.84,4.84,0,0,1,7.47,5.93c-.27.49-3,4.36-3.49,5-.13.2-.43.71-.62.78-.37.16-.6-.35-.76-.57L185,236.14c-.95-1.37-1.67-2.06-1.87-3.8m5.19-2.63a2.09,2.09,0,1,0,1.69,2.41A2.07,2.07,0,0,0,188.3,229.71Z"/></g></g></svg>