<svg xmlns="http://www.w3.org/2000/svg" viewBox="0 0 570.6 533.55"><defs><style>.cls-1,.cls-13{fill:#e3e0ff;}.cls-1,.cls-10,.cls-11,.cls-12,.cls-14,.cls-2,.cls-4,.cls-6,.cls-7,.cls-8,.cls-9{fill-rule:evenodd;}.cls-2,.cls-5{fill:#fff;}.cls-3,.cls-4{fill:#cfc7ff;}.cls-6{fill:#ffabcc;}.cls-7{fill:#2678fa;}.cls-8{fill:#ed87ab;}.cls-9{fill:#c7c2ff;}.cls-10{fill:#4d128f;}.cls-11{fill:#5712a6;}.cls-12{fill:#78e3cc;}.cls-14{fill:#e3e3fa;}</style></defs><g id="Layer_2" data-name="Layer 2"><g id="Layer_1-2" data-name="Layer 1"><path class="cls-1" d="M215.81,500.91A106.18,106.18,0,1,1,322,394.73,106.39,106.39,0,0,1,215.81,500.91"/><path class="cls-1" d="M274.19,414C160.87,414,68.45,321.55,68.45,208.23S160.87,2.49,274.19,2.49,479.93,94.92,479.93,208.23,387.5,414,274.19,414"/><path class="cls-1" d="M476.74,517.92c-86.45,0-157-70.51-157-157s70.51-157,157-157a156.06,156.06,0,0,1,93.86,31.3V486.63a156.05,156.05,0,0,1-93.86,31.29"/><path class="cls-1" d="M453.87,335.51c-91.28,0-165.73-74.45-165.73-165.73S362.59,4.05,453.87,4.05A165.19,165.19,0,0,1,570.6,52.32V287.23a165.2,165.2,0,0,1-116.73,48.28"/><polygon class="cls-1" points="322.92 508.68 330.74 513.2 338.56 517.71 338.56 508.68 338.56 499.66 330.74 504.17 322.92 508.68"/><path class="cls-2" d="M448.35,451.09A7.32,7.32,0,1,1,441,458.4a7.31,7.31,0,0,1,7.32-7.31m11.08,12.8c4.78,0,4.78,7.27,0,7.27S454.65,463.89,459.43,463.89Z"/><path class="cls-2" d="M165,256.6h0a7.32,7.32,0,1,1-7.32-7.32A7.32,7.32,0,0,1,165,256.6m-12.81,11.08a3.63,3.63,0,1,1-3.63-3.63A3.62,3.62,0,0,1,152.21,267.68Z"/><polygon class="cls-2" points="477.23 75.19 485.04 79.7 492.86 84.22 492.86 75.19 492.86 66.16 485.04 70.68 477.23 75.19"/><polygon class="cls-1" points="91.86 370.3 94.19 361.58 96.53 352.86 87.81 355.2 79.09 357.53 85.48 363.92 91.86 370.3"/><path class="cls-1" d="M205.11,533.55a6.63,6.63,0,1,1,6.62-6.62,6.64,6.64,0,0,1-6.62,6.62"/><path class="cls-2" d="M570.6,121.05H494.15c-11.62,0-10.92,13.39-8.45,20.44s20.08,48.61,20.08,48.61.88,3.88,2.38,9.24H570.6Z"/><path class="cls-2" d="M365.5,187.38H202.1s-15.32,0-11.95-16.54S228,83.53,238.64,72.4c2.93-3.07,14.09-7.2,30.84-4.46,32.59,5.32,83.13,21.45,116.87,33.88-1.53,9.54-17.83,73.73-20.85,85.56m24.68,0H375l20.44-82.13c7.72,3,14.12,5.59,18.64,7.65,33,15,34.63,52.81,27.4,65.64S390.18,187.38,390.18,187.38Z"/><rect class="cls-3" x="437.17" y="170.42" width="44.43" height="7.93" transform="translate(140.73 548.42) rotate(-70.36)"/><polygon class="cls-4" points="394.63 351.81 399.56 434.44 270.62 434.44 291.76 311.65 370.68 299.67 394.63 351.81"/><path class="cls-4" d="M412.61,200.11,431.49,181h86.25s13.57.08,19.56,13.12S541,222.6,541,222.6h20.61V434.44H335.71V288.84Z"/><path class="cls-4" d="M504.76,133.13c22.13-1.4,23.69,8.09,15.75,29.31-3.89,10.41-14.37,10.71-14.37,10.71H469.82c-14.77,0-18.71-1.13-21.11-3.24s1.39-17,5.36-26.07c4.46-10.18,12.12-10.71,14.37-10.71Z"/><rect class="cls-3" x="479.98" y="166.37" width="44.43" height="7.93" transform="translate(172.98 586.06) rotate(-70.36)"/><path class="cls-4" d="M561.61,434.44l-39.46-117.2c10.41-9,30.22-13.05,48.45-18.27V434.44Z"/><path class="cls-4" d="M570.6,330.74c-11.29,13.57-23,26.46-32.17,35.58-3.12,3.09-6,5.75-8.39,7.85L521,267.8l40.59-45.2h9Z"/><rect class="cls-3" x="313.99" y="319.91" width="140.36" height="25.73"/><path class="cls-4" d="M0,62.33s11.18,48.33,40.77,66.41,39.45,19.07,45,33.86c5.33,14.11,22.17,86.83,13.61,115.49h6c6.16-35.16-8.51-90.79-17.17-126a66.8,66.8,0,0,1,1.3-11.41c3.83-15.34,13.51-17.47,40.8-38.87s32.77-70.7,32.77-70.7C118,91.29,90,72.33,84.92,140.68,70.61,99.05,45.37,110,0,62.33"/><path class="cls-4" d="M188.63,107.85C135.21,132,96.68,217.82,81.05,279.09a205.53,205.53,0,0,0,20.37,40.65c11.84-48.41,51.78-97.54,95-122.23-49.08,10-93.84,40.62-108.84,90.18,22.77-100.17,94-135,101.06-179.84"/><path class="cls-5" d="M309.91,350.14H570.6v2.59H309.91Zm206.2-211.86-7.58,28.3-2.5-.67,7.58-28.3Zm7,53.34-34,127H570.6v2.6H425.92v-2.6h60.51L520.63,191Z"/><path class="cls-4" d="M176.19,76.75s0-16.07,10.37-25.39S214,44.62,214,44.62s-2.59,28.5-37.84,32.13"/><path class="cls-1" d="M48.17,170.78s-.34-7.46-8.14-13.22a31.18,31.18,0,0,0-15.6-6.11s1,19.67,23.74,19.33"/><path class="cls-4" d="M152.88,296.77h0a31.91,31.91,0,0,0-39.8-14.3c-4,9.54-7.83,21.63-11.66,37.28a207.21,207.21,0,0,0,17.91,23.71c.73.84,1.47,1.67,2.21,2.49a105.88,105.88,0,0,0-4.18,88.5H225.79s-1.61-8.94,3-10.64l28.5-10.52,2.1-.77V408s.26-1.68,1.53-1.68h1.26V317.6l-32.1,30.29c-1.26-.42-2.45-.84-3.56-1.27l-7.2,7.2-9.71,17.84c-9.68-.14-12.67-4.57-19-7.62-14.09-6.82-28.46-13.6-35.5-21.62,0,0,3.08-8.55,7.91-7.72l32.14,5.51,2.26-3.91s1.07-1.32,2.16-.69l3.92,2.27,5.15-8.92s2.12-3.67,5.46-9.4c3.93-6.72,9.54-16.29,15.4-26.11l2.21-3.71c8.39-14,16.9-27.82,21.37-34l.05-.07a43.77,43.77,0,0,0-80.81,32.58h0c-.57,0-1.15-.07-1.74-.07a22.53,22.53,0,0,0-17.73,8.61"/><path class="cls-1" d="M165.68,410.79s-.34-7.46-8.14-13.23a31.1,31.1,0,0,0-15.6-6.1s1,19.67,23.74,19.33"/><path class="cls-4" d="M537.48,102.48s.34-7.46,8.14-13.23a31.21,31.21,0,0,1,15.6-6.1s-1,19.67-23.74,19.33"/><polygon class="cls-1" points="88.69 39.85 80.88 35.34 73.06 30.82 80.88 26.31 88.69 21.8 88.69 30.82 88.69 39.85"/><path class="cls-1" d="M565.89,23.35s-.41-9-9.83-16A37.69,37.69,0,0,0,537.21,0s1.23,23.76,28.68,23.35"/><polygon class="cls-4" points="191.02 268.09 253.1 255.72 260.54 283.48 321.78 283.48 292.06 434.44 182.44 434.44 191.02 268.09"/><polygon class="cls-6" points="262.16 380.57 262.16 412.63 284.47 418.44 294.99 379.18 262.16 380.57"/><polygon class="cls-6" points="219.61 330.5 208.66 328.96 200 343.97 214.41 358.71 234.47 338.66 219.61 330.5"/><path class="cls-7" d="M413.52,216.5S380,203.74,372.35,206s-34,28.81-39.86,40.32-5.64,19.73-5.64,19.73l85.26,30.3s21.6-40.87,21.13-50.5-19.72-29.36-19.72-29.36"/><polygon class="cls-8" points="337.06 222.01 334.58 224.44 329.6 236.16 327.95 248.84 339.32 257.21 356.13 221.83 337.06 222.01"/><path class="cls-1" d="M323.65,265.09l20-6.9-29.09-54.25a7.3,7.3,0,0,0-4.91-3.17L273,194.32s-1.82-.34-2.39.87l-.86,1.83s-1,1.57.39,3.93,13.87,24,13.87,24l3.68,23.93Z"/><path class="cls-2" d="M316.61,207.78l-2.07-3.84a7.3,7.3,0,0,0-4.91-3.17l-2.69-.47-7.63,7.63,8.58,8.57Z"/><path class="cls-9" d="M323.65,265.09l15-5.17-27.94-52.1a7.3,7.3,0,0,0-4.92-3.17l-36.29-6.41a4.76,4.76,0,0,0,.72,2.71c1.36,2.37,13.87,24,13.87,24l3.68,23.93Z"/><path class="cls-8" d="M433.75,171.36l.41-4.52-5.44-3.14s-18.43,11.36-21.31,11-5.48-1.06-5.48-1.06l-4.8.65s-3.71,6.17-.83,9.88,7,4.11,12.35,3.29,14-5.76,25.1-16"/><path class="cls-6" d="M280.26,243.37s12.76,3.29,16.05,4.53a15.66,15.66,0,0,0,4.53,1.23s-5.35-13.17-6.59-14a47.28,47.28,0,0,0-5.76-2.47l-4.44-7.7s-4.61,1.94-5.84,5.23,2.05,13.17,2.05,13.17"/><path class="cls-10" d="M342,301l23.25,18.93H314v0a5.53,5.53,0,0,0-1.63,0c-1.1.55-10.33,37.29-16.3,61.49-2.95,11.93-5.1,20.81-5.1,20.81-9,4.93-20.61,3.05-28.8,0v-116s26.33-15.64,34.56-12.35S342,301,342,301"/><path class="cls-11" d="M385.82,126.79a21.14,21.14,0,0,1-14.7-7.65c-6-7.45-4.23-14.5,1.61-19.33s15.71-1,21.35-1.62,22.15-7.45,33.42,2.42c12.27,10.73,12.85,43.52.7,56.65s-42.38-30.47-42.38-30.47"/><polygon class="cls-8" points="414.51 145.44 429.92 136.93 426.01 141.99 433.1 168.47 404.92 184.75 393.75 143.05 414.51 145.44"/><path class="cls-6" d="M422.25,130.67c10.26-17.71,17.9,14.63,2.9,15.24,0,0-.2,11.58-2.32,14.08s-12.73,10.23-20.45,11.58-12-2.31-14.67-12.73c-.12-.48-.25-1-.38-1.56h0c-.69-3-1.42-7.09-2.14-11.47v0c-.56-3.31-3.84-9.11-4.23-11.07-.27-1.34,0-8.43.21-12.78a43.84,43.84,0,0,0,8.22-.75c12.74-2.35,19.06-5.82,19.06-5.82s2.42,7,3.77,9.7,3.47,5.79,3.86,8.88,1.15,6.75,1.15,6.75l5.41-3.86Z"/><path class="cls-8" d="M393.77,162s8.18,2.09,11.87-7.34l-2.36-.92c-2.88,7.35-8.92,5.79-8.93,5.79Z"/><path class="cls-7" d="M447.33,254.89h14l19.75-34.56c3.68-6.44,3.29-17.28-6.58-28.81s-40.33-24.68-40.33-24.68-7.41,10.69-18.93,13.16a18.71,18.71,0,0,1-18.1-5.76s-28,4.12-40.33,14.82-22.22,35.38-22.22,35.38l56.79,13.17,30.45,25.51Z"/><path class="cls-2" d="M439.38,199.26c0,.06-8.37,19.8-11.56,29.74l2.41.77c3.16-9.86,11.45-29.47,11.48-29.52Z"/><path class="cls-11" d="M416.88,281.23S285.2,240.08,281.09,240.08s-17.29.82-28,15.64c-4.87,6.74-14.52,22.53-23.58,37.73C218.67,311.63,208.66,329,208.66,329c2.91,9.36,7.34,14.26,21.4,18.93l58.43-55.14s26,14,50.28,26.44l1.39.72h79.26c8.82-15.37,14.74-37.86,14.74-37.86Z"/><path class="cls-2" d="M357,234.73H345l-3.82-31.68h-3.59v-3.3h3.89l1.46-4.11h28l1.46,4.11h3.89v3.3h-3.59l-3.82,31.68Z"/><path class="cls-12" d="M355.61,226.31c-5,0-9-4.53-9-10.08s4-10.08,9-10.08,9,4.53,9,10.08-4.05,10.08-9,10.08"/><path class="cls-6" d="M373.44,243.37c2.25,1,44.26,51.85,52.49,53.5s12.34-2.47,14.81-5.77,20.58-36.21,20.58-36.21-5.76-9-13.17-14-19.75-8.23-19.75-8.23l-7,14.41-32.51-19.35s-3.44-7.19-7.79-11.19a14.16,14.16,0,0,0-9.57-3.7l-.52,4.35s-13.39.67-19.15-.15a25.51,25.51,0,0,1-9.34-3.12c-2.38,2.51-2.78,4.92-2.11,7.28.59,2.2.83,1.65,1.58,5.71C344.4,240,352.1,238.84,365.38,242c3.57.85,5.81.37,8.06,1.38"/><polygon class="cls-8" points="421.08 247.51 433.75 255.04 435.04 252.86 422.37 245.32 421.08 247.51"/><path class="cls-8" d="M377.06,217.06a28.25,28.25,0,0,0-5.85-1.24l-.21,1.57a27.45,27.45,0,0,1,5.46,1.13Z"/><rect class="cls-13" x="341.91" y="202.86" width="26.66" height="1.27"/><path class="cls-14" d="M294.34,217c-2.46,0-3.31,2-1.88,4.46s4.57,4.46,7,4.46,3.31-2,1.88-4.46-4.57-4.46-7-4.46"/><path class="cls-8" d="M286.2,228.7l2.29,4L285,231.38l-3.74-1.4,3.5-.17s.54-.46,1.41-1.11"/><polygon class="cls-2" points="321.03 216.04 330.58 233.84 332.5 237.42 328.98 240.94 328.62 241.3 317.16 219.91 321.03 216.04"/><path class="cls-10" d="M287.63,412.64v21.8H225.79s-1.61-8.94,3-10.64l30.6-11.29V408s.26-1.68,1.53-1.68h5.25s1.82,0,1.82,1.47v4.86c5.46,3.27,12.32,2.36,19.66,0"/><path class="cls-10" d="M219.3,353.82l-9.71,17.84c-9.68-.14-12.67-4.57-19-7.62-14.09-6.82-28.46-13.6-35.5-21.62,0,0,3.08-8.55,7.91-7.72l32.14,5.51,2.26-3.91s1.07-1.32,2.16-.69l4.55,2.63s1.59.89.84,2.18l-2.42,4.2c3.82,4.56,8.37,7.79,16.74,9.2"/></g></g></svg>