<svg xmlns="http://www.w3.org/2000/svg" viewBox="0 0 445.74 580.1"><defs><style>.cls-1{fill:#e3e0ff;}.cls-1,.cls-2,.cls-3,.cls-4,.cls-5,.cls-6,.cls-7{fill-rule:evenodd;}.cls-2{fill:#cfc7ff;}.cls-3{fill:#fff;}.cls-4{fill:#993dff;}.cls-5{fill:#5712a6;}.cls-6{fill:#7d21e8;}.cls-7{fill:#b06bff;}</style></defs><g id="Layer_2" data-name="Layer 2"><g id="Layer_1-2" data-name="Layer 1"><path class="cls-1" d="M0,0S54.73,17.6,61.21,75.87s20.34,70.29,61,85.09,54.57,40.7,58.27,86,37,89.71,93.42,95.26c96.76,9.52,49.39,63.52,147.5,105.3l17.16,31.63-39,30.37s-36-.35-48.46,15.37-25,32.84-92,20.35-91.57,36.07-150.3,17.57S0,580.1,0,580.1Z"/><path class="cls-2" d="M0,509.54V407.72c24.6-.74,47.13,11.4,50.49,40.5a21.32,21.32,0,0,1,10-3.33c5.36-.19,7.39,2.22,7.39,2.22a11.64,11.64,0,0,1-5.18,8.14C58.07,458,56,458.39,56,458.39s9.24-.18,14.79,6.48a20.27,20.27,0,0,1,4.63,14.24s5.92-17.76,25.53-22a35.82,35.82,0,0,1,31.81,7.95s1.3-5.18,4.26-8.32,4.07-3.33,4.07-3.33,8.88,3.88,12.39,12,32.91,36.88,32.91,36.88l-1.84,7.24Z"/><path class="cls-2" d="M126.37,424s2-21.85-14.68-33.46l-.65-.45-8,5,4.5-7.37c-13.6-8.72-18.72-8.15-18.72-8.15s-2,37.56,37.56,44.39"/><path class="cls-2" d="M62.52,434.36s7.95-1.3,11.65-8.33a17.86,17.86,0,0,0,1.48-13.32s-14.8,7.77-13.13,21.65"/><path class="cls-2" d="M115.8,443.61s-9.62-5.37-18-5.18-12.39,4.62-12.39,4.62,7.58,3,12.67,3.05,12.86-.27,17.67-2.49"/><path class="cls-2" d="M29.79,395.27c-1.89-2.46-5.39-6.09-9.69-6.28-6.54-.28-1.71,6.4,1.85,7,2.73.43,6.81,1.12,8.55,1.42q1,3.09,1.79,6.28c-1.94-2.21-6.16-6.22-10.92-5.93-6.53.39-1,6.54,2.56,6.73,2.78.16,7,.42,8.69.54a100.42,100.42,0,0,1,1.91,10.5c0,.39.09.78.14,1.17-1.09-2.46-4.1-8.14-9.07-9.27-6.39-1.44-2.82,6,.58,7.19,2.88,1,7.32,2.62,8.6,3.08,1.13,11,.27,22.08-3.27,31.62l.93.35c3.25-8.77,4.28-18.78,3.59-28.89,1.37-1.09,4.62-3.68,6.81-5.4,2.84-2.21,3.83-10.4-1.75-7-3.37,2.06-4.75,6.33-5.31,9.39-.08-.79-.17-1.58-.27-2.38q-.34-2.79-.86-5.56c1.41-1.13,4.58-3.64,6.72-5.32,2.83-2.22,3.83-10.41-1.76-7-3.61,2.2-4.93,6.94-5.41,10q-.64-3.06-1.46-6c1.16-1.19,4.19-4.26,6.2-6.28,2.55-2.54,2.55-10.79-2.58-6.73-3.47,2.75-4.12,7.94-4.18,11-.66-2.25-1.4-4.47-2.2-6.63,1.17-1.26,4.06-4.33,6-6.35,2.49-2.6,2.3-10.85-2.74-6.67-3.46,2.87-4,8.22-3.93,11.28q-.9-2.33-1.91-4.53c.69-1.12,2.83-4.61,4.25-6.87,1.71-2.72.06-9.89-3.59-5.33-2.53,3.15-2,7.95-1.4,10.6-.61-1.29-1.25-2.55-1.91-3.77-1.22-2.83-3.79-7.42-8-8.65-6.29-1.82-3.17,5.81.15,7.2,2.45,1,6,2.57,7.76,3.31.63,1.22,1.23,2.47,1.81,3.75-1.76-2.14-4.66-4.82-8.14-5-5.83-.25-1.52,5.71,1.65,6.21,2.42.39,6,1,7.59,1.27.81,1.93,1.57,3.92,2.27,5.94"/><path class="cls-2" d="M61.61,384.78s-9.39-9-13-18.56-3.2-20.28-3.2-20.28a21.2,21.2,0,0,0,6.83,8.11c15,11.24,8.64,17.25,9.39,30.73"/><path class="cls-2" d="M73.44,516.16c-9.44-.72-14.23.09-20.53,7.4,0,0,15.53,2.4,20.53-7.4"/><path class="cls-2" d="M174.05,537.09s-9.65-3.58-16.93,2.59l-.29.23,3.14,3-4.61-1.72c-5.6,5.1-6,7.49-6,7.49s16.76,5.48,24.66-11.62"/><polygon class="cls-1" points="112.41 119.93 98.15 111.69 98.15 111.94 98.15 128.16 112.41 119.93"/><path class="cls-1" d="M242.47,313.23c-11.6-8.75-16.71-14.84-16-29.94a35,35,0,0,0,5,5.71c2.27,1.86,12.32,6.33,11.08,24.23"/><path class="cls-3" d="M153.86,213s-10.18-10.64-15.73-12-13.87-1.38-13.87-1.38,5.55,15.49,29.6,13.41"/><polygon class="cls-3" points="33.59 292.54 19.32 284.31 19.32 284.55 19.32 300.77 33.59 292.54"/><path class="cls-4" d="M265.63,414.51l-1.14-6.71h43.73s18.8.61,34.36,6,51.18,25.65,51.18,25.65a195,195,0,0,1,27.68,8.13c13.94,5.35,16.85,8.95,16.85,8.95l-17.23,20S320,465,309.74,455.82s-44.11-41.31-44.11-41.31"/><path class="cls-5" d="M323.9,440.28l68.62,1.62S365,425.11,345.46,418s-62.52-5.47-62.52-5.47Z"/><path class="cls-5" d="M398.72,503.42,391,500.17H188.46l85.69-64.32s76.55,6.41,86.14,20.37,38.43,47.2,38.43,47.2"/><path class="cls-5" d="M254.7,463.56c-.35,0-.71,0-1.07,0-9.74,0-17.67,10.33-17.67,23s7.93,23,17.66,23h9.14c9.76,0,17.67-10.3,17.67-23,0-12.23-7.32-22.23-16.57-23h0c-.35,0-.71,0-1.08,0s-.72,0-1.07,0Z"/><path class="cls-5" d="M400.69,463.56c-.35,0-.71,0-1.07,0-9.74,0-17.67,10.33-17.67,23s7.93,23,17.66,23h9.14c9.76,0,17.67-10.3,17.67-23,0-12.23-7.32-22.23-16.57-23h0c-.36,0-.71,0-1.08,0s-.72,0-1.08,0Z"/><polygon class="cls-5" points="160.74 475.95 160.74 496.58 210.21 496.58 210.21 457.64 169.26 457.64 160.74 475.95"/><path class="cls-5" d="M340.91,463.52c.37,0,.73,0,1.08,0h0c9.25.74,16.57,10.74,16.57,23,0,12.71-7.91,23-17.67,23h-9.13l-4-7.66h0a28.39,28.39,0,0,1-.08-30.58h0l4.11-7.74h8.06c.35,0,.71,0,1.07,0"/><path class="cls-6" d="M331.78,509.54c9.73,0,17.66-10.34,17.66-23s-7.93-23-17.66-23-17.67,10.33-17.67,23,7.93,23,17.67,23"/><path class="cls-1" d="M330.82,502.71c6.84,0,12.42-7.27,12.42-16.18s-5.58-16.18-12.42-16.18-12.43,7.26-12.43,16.18,5.58,16.18,12.43,16.18"/><path class="cls-5" d="M193.73,463.52c.36,0,.72,0,1.08,0h0c9.25.74,16.57,10.74,16.57,23,0,12.71-7.91,23-17.67,23h-9.14l-4-7.66h0a28.39,28.39,0,0,1-.08-30.58h0l4.11-7.74h8.06c.36,0,.72,0,1.08,0"/><path class="cls-6" d="M184.59,509.54c9.73,0,17.67-10.34,17.67-23s-7.94-23-17.67-23-17.67,10.33-17.67,23,7.94,23,17.67,23"/><path class="cls-1" d="M183.63,502.71c6.85,0,12.43-7.27,12.43-16.18s-5.58-16.18-12.43-16.18-12.42,7.26-12.42,16.18,5.58,16.18,12.42,16.18"/><path class="cls-7" d="M209.63,496.58h101.8c-7.85-26.77,16.58-49.83,33.71-32.4,7.72,7.85,10.3,21.07,7,32.4h54.55c3.32-1.73,6.39-3.49,6.92-3.71,1.58-.68,1-5.91,1-8.12,0-3.44-1.64-5.83-4.48-8.67-6.38-6.38,5.41-11.79-12-20.47-10.46-5.23-47.07-13-62.9-17.19S295.53,406.6,257,407.64,195.56,422,182.11,428.41s-23.9,7.1-25.7,8-.15,5-3.06,8.59-2.69,6.42-2.69,6.42v21.07c0,6.28-4,10-2.24,16.22s9.75,7.87,9.75,7.87h6.07c-7.71-27.57,16.88-49.53,33.72-32.4,7.72,7.85,10.3,21.07,7,32.4Z"/><path class="cls-3" d="M398.15,456.88l-53.12-9s9.71,7.92,21.14,9.79S402,461.52,402,461.52Z"/><path class="cls-4" d="M394.64,496.58l13.62-7.86a3.53,3.53,0,0,0,1.1-4.34c-1.2-2.77-15.62-17-17.34-17.26s-14.34-.22-14.34-.22,7.47,15,7.1,16.51-3.29,4.48-5.53,6-13.82,1.05-13.82,1.05l9.56-24.5s.47-3.21,6.08-3.21,24.93.74,24.93.74l-5.78-6.78c-5.26-6.17,36.21-7.11,38.8,1l1.82,5.75s3,3.06,3,5.82-.34,16.44.11,17.71,2.17,4,1.72,5.46c-.3,1-3.92,2.94-7,4.13Z"/><path class="cls-5" d="M443.78,473.66,444,487c.46,1.32,1.95,3.59,1.78,5.18H402.28c9.16-5.29,11.59-4.69-2.34-18.27-6.06-5.92-6.76-6.8-9.65-6.9-.08,0,9.23-.11.13-.11,13.16,0,10.81-1.11,19.91,8.32,8.07,8.37,6,7.79,19.29,7.79,6.56,0,7.68-2.61,12.67-7.79Z"/><path class="cls-5" d="M196,446h8.68a1.39,1.39,0,1,1,0,2.77H196a1.39,1.39,0,1,1,0-2.77"/><path class="cls-5" d="M246.4,446h8.69a1.39,1.39,0,0,1,0,2.77H246.4a1.39,1.39,0,1,1,0-2.77"/><path class="cls-5" d="M252.49,412.94c-2.93,10-3.2,19.24-3.42,27.69l60.45,2.76s1.68-2.12,1.87-6.6-16.32-16.28-29.21-21.2-29.69-2.65-29.69-2.65"/><path class="cls-7" d="M297.62,435.17s-3.48-5-7-6.07-8.84-1.21-10.21-.62c-6.43,2.77-3.54,10.86,3.55,10.86h11.82c.56,2.06.17,2.34,2.46,2.34,3.81,0,6.14.49,6.54-.91.22-.74-2.33-5.29-2.68-5.44s-4.45-.16-4.45-.16"/><path class="cls-5" d="M207.62,438.74A94.68,94.68,0,0,1,213,420a115.23,115.23,0,0,0-10.86,3.9c-4.64,2-10,14.16-10,14.16Z"/><path class="cls-5" d="M216,419a94.38,94.38,0,0,0-5.76,19.83l29.11,1.33c.63-6.77,3.69-20.47,6.65-26.81A141.18,141.18,0,0,0,216,419"/><path class="cls-5" d="M154.14,443.83c7.4-.19,14.72-2,20.51-6.59l-18.24-.83c-1.6.8-.46,4.16-2.27,7.42"/><path class="cls-5" d="M383.08,478.42c-1-2.33-2.27-5.05-3.33-7.27-1.16-2.43-2.07-4.25-2.07-4.25l-1.58-2.74a3.19,3.19,0,0,0-1.11,1.77l-.05.12,1.23,4.59,2.41,9,.16.59s1.45,3.46-2.66,5.45-10.65,4.78-10.65,4.78,11.58.45,13.82-1.05a20,20,0,0,0,2.7-2.22,19.29,19.29,0,0,0,1.54-1.64,6.36,6.36,0,0,0,1.29-2.11c.12-.5-.64-2.53-1.7-5"/><path class="cls-5" d="M400.22,456.68l5.78,6.78h34.84L439.1,458c-1.65,2.26-8.39,2.42-13.11,2.64-11.35.52-25.77-3.91-25.77-3.91"/><path class="cls-5" d="M427.29,467c1.57,0,2.84,1.82,2.84,4.07s-1.27,4.07-2.84,4.07-2.84-1.82-2.84-4.07,1.27-4.07,2.84-4.07"/></g></g></svg>