<svg xmlns="http://www.w3.org/2000/svg" viewBox="0 0 93.45 23.88"><defs><style>.cls-1{fill:#5712a6;}.cls-2{fill:#7d21e8;}.cls-3{fill:#26e0fa;fill-rule:evenodd;}</style></defs><g id="Layer_2" data-name="Layer 2"><g id="Layer_1-2" data-name="Layer 1"><path class="cls-1" d="M88.07,5.6a5.6,5.6,0,0,0-4.44,1.81V5.74H80.76V18.63h3V12.11c0-2.58,1.45-3.88,3.6-3.88,1.93,0,3.06,1.11,3.06,3.4v7h3V11.25c0-3.89-2.3-5.65-5.38-5.65m-42.28.14L41.67,15.3l-4-9.56H34.53l5.52,12.89h3.11L48.69,5.74ZM29.65,18.63h3V5.74h-3Zm1.52-15A1.85,1.85,0,0,0,33.1,1.74,1.8,1.8,0,0,0,31.17,0a1.84,1.84,0,0,0-1.93,1.81A1.84,1.84,0,0,0,31.17,3.62Zm-8.66,4V5.74H19.64V18.63h3V12.38c0-2.63,1.44-4,3.74-4a3.76,3.76,0,0,1,.7.07V5.6C25,5.6,23.38,6.27,22.51,7.63ZM3.14,16V4.39h4.1c3.76,0,6.2,2.29,6.2,5.79S11,16,7.24,16ZM0,18.63H7.38c5.48,0,9.22-3.38,9.22-8.45S12.86,1.74,7.38,1.74H0Z"/><path class="cls-1" d="M55.78,8a3.52,3.52,0,0,1,3.57,2.63L52.07,12v0c0-2.46,1.52-4,3.71-4m.56,8.23A3.93,3.93,0,0,1,52.43,14L62.3,12A6.21,6.21,0,0,0,55.78,5.6a6.39,6.39,0,0,0-6.63,6.59c0,3.83,2.8,6.61,7.12,6.61a6.45,6.45,0,0,0,5.16-2.1l-1.59-1.86A4.66,4.66,0,0,1,56.34,16.24Z"/><path class="cls-2" d="M71,16.22a3.75,3.75,0,0,1-3.81-4,3.83,3.83,0,1,1,7.65,0,3.75,3.75,0,0,1-3.84,4m0,2.58c4,0,6.88-2.75,6.88-6.61S75,5.6,71,5.6a6.49,6.49,0,0,0-6.85,6.59A6.51,6.51,0,0,0,71,18.8Z"/><path class="cls-3" d="M63.13,11.23a7.89,7.89,0,1,1,14.79,3.09c-.43.8-4.92,7.12-5.68,8.23-.23.33-.71,1.15-1,1.28-.6.25-1-.57-1.24-.93l-3.8-5.48c-1.54-2.23-2.71-3.37-3.05-6.19m8.46-4.3a3.41,3.41,0,1,0,2.76,3.93A3.41,3.41,0,0,0,71.59,6.93Z"/></g></g></svg>