<svg xmlns="http://www.w3.org/2000/svg" viewBox="0 0 416.03 663.21"><defs><style>.cls-1{fill:#e3e0ff;}.cls-1,.cls-10,.cls-13,.cls-15,.cls-2,.cls-3,.cls-4,.cls-6,.cls-7,.cls-8,.cls-9{fill-rule:evenodd;}.cls-12,.cls-2{fill:#bfedff;}.cls-3,.cls-5{fill:#cfc7ff;}.cls-11,.cls-4{fill:#fff;}.cls-6{fill:#ffabcc;}.cls-7{fill:#b06bff;}.cls-14,.cls-8{fill:#5712a6;}.cls-9{fill:#ed85ab;}.cls-10{fill:#2678fa;}.cls-13,.cls-16{fill:#ed87ab;}.cls-15{fill:#d9a14f;}</style></defs><g id="Layer_2" data-name="Layer 2"><g id="Layer_1-2" data-name="Layer 1"><path class="cls-1" d="M317.06,105.59l12.56-7.25v14.5ZM202.54,275.79c10.21-7.7,14.71-13.06,14.12-26.36a31.1,31.1,0,0,1-4.36,5C210.3,256.1,201.45,260,202.54,275.79ZM416,0s-48.19,15.5-53.89,66.8-17.92,61.89-53.75,74.92-48,35.83-51.3,75.74-32.58,79-82.25,83.88c-85.2,8.38-43.5,55.92-129.88,92.71L29.86,421.9l34.32,26.74s31.66-.31,42.66,13.53,22,28.92,81,17.92,80.62,31.76,132.33,15.47S416,510.77,416,510.77Z"/><path class="cls-2" d="M260.27,513.92a88.26,88.26,0,1,1-124.79-2.73,88.26,88.26,0,0,1,124.79,2.73"/><path class="cls-1" d="M416,571.49a171,171,0,1,1,0-258.61Z"/><path class="cls-1" d="M224.72,318.12a130.47,130.47,0,1,1-184.47-4,130.47,130.47,0,0,1,184.47,4"/><path class="cls-1" d="M313.6,235.94a147.59,147.59,0,1,1-208.68-4.57,147.59,147.59,0,0,1,208.68,4.57"/><path class="cls-3" d="M60.69,470.16,49.39,317.59H36.73a130.49,130.49,0,0,0-8,172.48H49.38V490l11.3-15.65-1.14-.3s.42-1.46,1.14-3.89"/><polygon class="cls-1" points="95.68 585.6 88.48 583.5 81.28 581.4 86.7 576.22 92.12 571.03 93.9 578.32 95.68 585.6"/><path class="cls-1" d="M22.09,505.12h0a6.08,6.08,0,1,0-.18,8.6,6.08,6.08,0,0,0,.18-8.6m-14,.7a3,3,0,1,0-.1,4.27A3,3,0,0,0,8,505.82Z"/><polygon class="cls-4" points="268.09 244.61 260.88 242.51 253.68 240.41 259.1 235.22 264.52 230.03 266.3 237.32 268.09 244.61"/><polygon class="cls-1" points="347.74 263.05 345.96 255.76 344.17 248.47 351.38 250.57 358.58 252.67 353.16 257.86 347.74 263.05"/><polygon class="cls-1" points="311.59 644.82 315.48 638.4 319.37 631.99 322.98 638.57 326.59 645.15 319.08 644.98 311.59 644.82"/><rect class="cls-5" x="49.39" y="311.24" width="102.02" height="185.98"/><path class="cls-1" d="M173.78,390.76H76.29a19.94,19.94,0,0,0-19.88,19.88v13.87a6,6,0,0,0,6,6H173.78a6,6,0,0,0,6-6V396.77a6,6,0,0,0-6-6"/><path class="cls-6" d="M66.47,480.12l-11.33,17.1L30.3,491.93q-3.64-4.37-6.85-8.94l3.64-13.7,7.78-15.15Z"/><polygon class="cls-3" points="416.03 474.39 353.01 441.67 376.64 490.07 416.03 490.07 416.03 474.39"/><path class="cls-3" d="M146.88,390.76H284.13s42.06,22.33,42.3,21.12-9.11,15.72,1.1,4.95l.1-.11,7.05-13.79s.7-12.59,20.84-21.68c6.29-2.84,14.37-4.55,22.51-5.55,4,29.12,5,53,4.21,83l20.82,12c.81-31.34-.14-65.15-5.91-96.35,9.86-.21,17.12.26,17.12.26l-24.81-26.51-.93-2.72s-33.29-29.37-69.09-35-172.56,4.94-172.56,4.94Z"/><path class="cls-7" d="M416,502.78H144.15q.91,2.42,1.91,4.82H416Zm-49.83-168a89.89,89.89,0,0,1,18.25,17.57c10.86,12.2,21.67,27.24,31.58,43.14V368.82c-5.91-8-11.92-15.51-18-22.29a175.65,175.65,0,0,0-21.86-21,117.2,117.2,0,0,0-16.74-10.07c-15.74-7.76-30.15-10.53-37.14-10.53H182.27a175.31,175.31,0,0,0-15.16,12.71H321.24C329.12,317.59,348.27,321.81,366.2,334.78Z"/><path class="cls-3" d="M146.88,430.52h113.2l20.58,59.55h-69.1s-3.2.21-4.2,1.53-4.41,5.62-4.41,5.62H146.88Z"/><path class="cls-3" d="M150.39,416h-11c-1.78,0-1.86,1.08-1.86,1.08s-2,7.92-2.49,9.57,1.34,2.28,1.34,2.28h28.11s1.81-.63,1.34-2.28-2.49-9.57-2.49-9.57-.08-1.08-1.86-1.08Z"/><path class="cls-8" d="M140.43,363.73a20,20,0,0,0,13.89-7.23c5.71-7,4-13.7-1.52-18.27s-14.84-1-20.17-1.52-20.94-7-31.6,2.28c-11.59,10.14-12.14,41.13-.65,53.54s40.05-28.8,40.05-28.8"/><polygon class="cls-9" points="113.31 381.36 98.75 373.31 102.45 378.1 95.74 403.13 91.58 414.05 122.38 418.51 132.94 379.1 113.31 381.36"/><path class="cls-6" d="M106,367.4c-9.7-16.74-16.92,13.83-2.74,14.4,0,0,.18,10.95,2.19,13.32s12,9.66,19.33,10.94,11.31-2.19,13.86-12q.18-.67.36-1.47h0c.65-2.85,1.35-6.7,2-10.84v0c.52-3.13,3.62-8.61,4-10.46.26-1.27,0-8-.2-12.08a42,42,0,0,1-7.76-.7c-12-2.23-18-5.51-18-5.51s-2.28,6.61-3.56,9.17-3.28,5.47-3.65,8.39-1.09,6.38-1.09,6.38l-5.11-3.65Z"/><path class="cls-9" d="M132.91,397s-7.72,2-11.21-6.94l2.23-.87c2.72,6.95,8.42,5.48,8.44,5.48Z"/><path class="cls-10" d="M124.41,410.92s-2.5,4.21-13.21,2.09a24.36,24.36,0,0,1-15.46-9.88s-48.31,9.91-53,16.67-18.19,53.52-18.19,53.52L56.8,482l-3.32,15.26H149.3L148.16,475,169.23,470s-1.47-6.14-7-20.53-9-24.55-11.35-27.22-25.71-14.13-25.71-14.13Z"/><path class="cls-6" d="M103.21,394.45c-.35-5,.05-12.65.05-12.65a7.94,7.94,0,0,1-1.74-.24L99,390.82l0,.08-3.28,12.23A24.35,24.35,0,0,0,111,413c.82-2.78,1.62-5.32,1.62-5.32s-8.12-6.17-9-10.32a20.82,20.82,0,0,1-.36-2.88"/><rect class="cls-11" x="47.8" y="463.63" width="28.81" height="1.16" transform="translate(-400.75 393.25) rotate(-73.65)"/><polygon class="cls-6" points="167.02 470.56 148.16 474.96 149.3 497.21 167.24 497.21 174.04 497.21 167.02 470.56"/><polygon class="cls-4" points="146.97 473.51 146.24 444.37 147.4 444.34 148.13 473.48 146.97 473.51"/><path class="cls-7" d="M195.3,317.59H36.74q1.73-1.77,3.52-3.5A128.54,128.54,0,0,1,51,304.88H195.3Z"/><path class="cls-3" d="M26.77,396.56c40.4,27.46,81.4,60.19,109.12,100.66H149.3l-.67-13.05C115.42,445.79,91,421.82,48.28,394.38Z"/><polygon class="cls-1" points="29.11 294.88 27.33 287.6 25.55 280.31 32.75 282.41 39.95 284.51 34.53 289.7 29.11 294.88"/><rect class="cls-12" x="213.41" y="490.07" width="186.76" height="8.25"/><path class="cls-1" d="M163.44,497.22l4.38,5.56H40.46q-2.16-2.05-4.24-4.23c-2.63-2.74-5.11-5.58-7.45-8.48H153c1.18,0,4.81-.11,6.05,1.53Z"/><path class="cls-3" d="M252,416h-11c-1.79,0-1.87,1.08-1.87,1.08s-2,7.92-2.49,9.57,1.34,2.28,1.34,2.28H266s1.81-.63,1.34-2.28-2.49-9.57-2.49-9.57S264.79,416,263,416Z"/><path class="cls-1" d="M203,497.22l-4.37,5.56H416V490.07H213.41c-1.18,0-4.81-.11-6,1.53Z"/><path class="cls-6" d="M211.61,428.79c-4,2.73-15.7,9.46-15.7,9.46l-2.71,6.29-13.55-4s3.4-8.77,2.93-9.81a7,7,0,0,1,1.89-7c2.57-2.28,7.21-3.14,8.54-4s1.42-2.56,2-4.46,3.61-3.7,4.37-.47a11,11,0,0,1,.14,5.26s7-3.46,9-7.44,3.89-3.32,5-1.81.53,2.13.53,2.13a5.7,5.7,0,0,1,2.38,1.95c3.42,5.32-.86,11.22-4.8,14"/><path class="cls-6" d="M191.21,432.18c0-1.66-8.21-3.44-8.21-3.44l-17.32,60.68,2.92,7.8h21.33l6.08-60Z"/><polygon class="cls-9" points="163.62 491.05 166.9 479.11 168.3 479.49 165.02 491.43 163.62 491.05"/><path class="cls-7" d="M153.07,502.78H40.45q2.61,2.49,5.33,4.82H155l-1.91-4.82Z"/><path class="cls-7" d="M208.19,513.15H52.74A130.7,130.7,0,0,0,160.63,535.3,171,171,0,0,0,416,571.49V513.15H208.19Z"/><path class="cls-1" d="M277.07,611.06A171.44,171.44,0,0,1,160.63,535.3,131.24,131.24,0,0,1,116.31,538a88.28,88.28,0,1,0,160.76,73"/><polygon class="cls-4" points="145.82 565.11 149.71 558.7 153.6 552.28 157.21 558.86 160.82 565.44 153.32 565.27 145.82 565.11"/><polygon class="cls-8" points="322 445.97 328.31 447.47 327.1 451.87 323.09 450.62 322 445.97"/><path class="cls-1" d="M240.74,175.24c-1.68-13.12-.81-30.18,15.79-32,0,0,4.51,19.4-15.79,32"/><path class="cls-13" d="M332.46,443.57s-3.3.93-3.37,1.2-2.67-.86-2.67-.86l4.63-5.78Z"/><rect class="cls-14" x="254" y="474.48" width="112.71" height="15.59"/><path class="cls-8" d="M295.66,409l13.23-10.59s-32.62,3-50.39,14.88c-9,10.82-21.12,52.76-22.75,57.87s-1.06,16.25,5.31,18,56.06,0,56.06,0Z"/><path class="cls-8" d="M330.88,406.21,326,395.88s40.43,8.27,48.16,15.53c2.52,4.19,16.68,47.62,18.36,52.87s1.08,22.54-5.46,24.29-99.42,0-99.42,0Z"/><path class="cls-15" d="M321.43,392.7l5.72,3.16a135.06,135.06,0,0,1,7-19.93c4.14-8.83,4.56-17.16,2.54-20.86s-5.31-4.16-6.67-5.79-13.11-10.55-25.13-9.12-13.29,10-13.71,11-4,4-3.94,10.36,3.62,17.4,3.62,17.4Z"/><path class="cls-8" d="M322.92,418.87l9.5-10.49s-14.24,37.11-22.48,53.91S297,484.37,297,484.37s-6-31.44-6-35.26,3.79-35.69,3.79-35.69,16.66-.84,28.1,5.45"/><path class="cls-8" d="M333.05,402.86h0a29.47,29.47,0,0,1-1.33,8.2,140.85,140.85,0,0,1-6.9,17.06s-5-7.26-7.8-9.34-9.23-1-9.23-1l8.65-12.17.41,2.11,10.33-7.09,5.87,2.23M315.3,399.7l-13.15,2.38s-2.57,1.33-6.29,3.32a82.45,82.45,0,0,0-5.61,15.92s6.35-4.72,7.62-5.08,8.06,1.21,8.06,1.21l3.74-15.37,5.68-2.09Z"/><path class="cls-6" d="M328.44,365.74s2.55-3.51,5.91.53c4,4.78,0,14.91-7.24,14.26l.09,23.88s-7.12,12.78-16.87,13.4-10.12-6.62-9.8-9.71a24.09,24.09,0,0,1,1.51-6l.46-5.17c-13.21-.86-13.86-20-13-29.52a66.69,66.69,0,0,1,2.81-14.66s2.63,4,11.91,8.53,15.94,5.16,15.94,5.16a8.63,8.63,0,0,0,1.24,3.66c1.06,1.45,2.3,4.63,3.19,5.24,1.17.24,1.11-1.14,1.39-2.32a29.53,29.53,0,0,1,2.46-7.32"/><path class="cls-15" d="M298.92,351.46s.23,2.91-2.67,7.61-7,14.29-7,14.29-.43-17.6-.23-18,2.61-6.46,5.81-4.43,4.05.52,4.05.52"/><path class="cls-15" d="M310.75,349.69l-13.88,2.1c-1.78.26-2.47,5.95-1.43,7.49,3.52,5.25,31.36,24.44,30.39,18L324,365.19Z"/><path class="cls-6" d="M299.18,372.14l-4.64-10,1.28-2.33s7,7.44,15.64,10.88a25.18,25.18,0,0,0,15.82,1.09s2,4.91,1.79,6.56.36,6.87-8.92,6.26-21-12.44-21-12.44"/><path class="cls-8" d="M318.28,419.9c-3.3,2.18-8.72,5.73-9.2,5.88a15.66,15.66,0,0,1-5.26-.18,5.82,5.82,0,0,1-1.25-1.6c-1.37-2.1-3.45-5.74-4.6-7.79,1.48-.27,8,1.24,8,1.24a11.93,11.93,0,0,0,1.86.33,16.28,16.28,0,0,0,2.54,0,11.82,11.82,0,0,0,2-.3,8.87,8.87,0,0,1,4.71,1.27,7.91,7.91,0,0,1,.68.57c.19.17.39.35.58.55"/><polygon class="cls-8" points="304.73 422.62 309.08 425.78 310.69 484.48 287.59 489.4 287.74 471.05 304.73 422.62"/><polygon class="cls-9" points="280.12 450.66 277.72 446.87 271.28 451.68 267.45 453.57 263.44 484.31 271.21 478.31 286.06 462.91 280.12 450.66"/><path class="cls-8" d="M325.74,391.27l2.62,4.36a195.19,195.19,0,0,0,8.25-20.19c2.88-9,2.72-19.19,1-22.87a7,7,0,0,0-5.27-4,17,17,0,0,0-13.59-8.31c-9.44-.48-20.79.32-27.35-2.24s-13.11,4.16-9.27,14.55,18.39,8.8,18.39,8.8S304,386,325.74,391.27"/><path class="cls-6" d="M322.15,368.64s1.6-4.32,4.64-4.16,5.59,5.44,4.31,10.56-4.31,6.72-5.59,6.72a5.41,5.41,0,0,1-2.24-.49s-.64,8-4.32,12-13.75,7.51-18.07,6.23-4.95-12-5.75-19.18.32-25.11.32-25.11l10.39.48s1.12,5.76,3.36,7.52,4.16,1.91,5.27,4.63,2.08,10.88,2.08,10.88l4.8-3.52Z"/><path class="cls-6" d="M301.46,365.61l4.38-9.92s-8.17-1.25-13.38-.8a44,44,0,0,0-5.9.68s-.9,15.19,0,23.8,5.51,19.2,14.32,20.13,16.41-4.76,16.41-4.76Z"/><path class="cls-8" d="M289.28,383.91s1.5-2.74,3.63-3.63c5.67-2.36,12.42.8,15,6.29,1.59,3.4,10.6,1.51,8.43-9.62s-3-15.26-3-15.26l7.71,3.63s1.62,12.63,1.49,20.37-6.25,11.59-10.56,13.63a23.61,23.61,0,0,1-14.73,1.14c-6.61-1.74-11.49-11.87-10.24-18.29Z"/><path class="cls-8" d="M305.65,389.37l.75-5.19,3.2,2.77,8.15-10s3.87,4.28.71,9.21-12.81,3.25-12.81,3.25"/><path class="cls-8" d="M284.38,350.23l2.05,8s-6.83-2-8.72-12.84c-2.87-16.52,19.55-18.34,22.44-8.38,5.08-6.54,19.94-5.7,21.6,2.13,6.2-1.56,11.15,3.24,10.55,9.43s-47.92,1.66-47.92,1.66"/><path class="cls-6" d="M325.05,374.09l-2.82.19s1.09,4.64-.5,12.34-5.29,19-5.29,19l10.76-1.2,2.42-4.47s-.76-3.61-1.64-10.46a118.23,118.23,0,0,1-.71-14.74Z"/><path class="cls-6" d="M267.45,453.57l-7.62,3.1s-5.67-3.37-10.35-3.52a35.34,35.34,0,0,0-8.32.69s-6.69,17.77-7,23.43,1.46,12.8,9.73,12.8h15.78l11.55-11.76L266.33,468Z"/><path class="cls-6" d="M358.82,458.2l-5.81-9,17.38,7.44s5.67-3.37,10.34-3.52a35.47,35.47,0,0,1,8.33.69s6.68,17.77,7,23.43-1.46,12.8-9.73,12.8H366.71l-7.42-8.67Z"/><polygon class="cls-9" points="342.5 447.55 345.23 445.72 359.05 451.79 361.56 464.56 359.29 481.4 338.57 458.87 342.5 447.55"/><path class="cls-8" d="M310.91,441.68c27.77,0,53,22.56,59.31,48.39h-7.59c-6.09-21.73-28-41-51.72-41s-45.14,19.31-51.24,41h-7.59c6.27-25.83,31.07-48.39,58.83-48.39"/><path class="cls-9" d="M325,447.94a46.05,46.05,0,0,0-3.84,4.84c-.43,1-.79,2.94.61,3.92s11.58,8.21,13.48,8.27,5.7-.92,5.57-5.33S325,447.94,325,447.94"/><path class="cls-9" d="M297.7,448.25s4.23,3.55,4.66,4.53.79,2.94-.61,3.92-11.58,8.21-13.48,8.27-5.7-.92-5.58-5.33,15-11.39,15-11.39"/><path class="cls-6" d="M292.85,438.13s4.59,15.25,4.66,16.9-2.72,2.84-3.63,3a3.33,3.33,0,0,1-1.72-.21,2.78,2.78,0,0,1-.55,1.71,13.8,13.8,0,0,1-3.8,2.54,2.72,2.72,0,0,1-1.5-.42,3.15,3.15,0,0,1-1,2.32,7.9,7.9,0,0,1-2.51,1.41,4.67,4.67,0,0,1-1.69-.12s.13,1.16-.09,1.32-2.35,2-3.75,1.75-7.73-9.83-8.53-10.82-.43-4-.06-5.15,2.14-1.47,2.63-2.81.92-2.64,2.82-3.25a6.26,6.26,0,0,0,4-2.94,5.92,5.92,0,0,1,4.17-2.64,7.1,7.1,0,0,0,2.75-.55c.74-.43,2.64-2.45,3.37-2.51s3.62-.18,4.46.48"/><path class="cls-9" d="M286.28,443.56s3.42,9.36,5.85,13.47l-.73.43c-2.47-4.17-5.91-13.59-5.92-13.61Z"/><path class="cls-9" d="M285.78,461.43s-5.07-7.44-6.89-11.59l.78-.34c1.79,4.09,6.79,11.43,6.81,11.45Z"/><path class="cls-9" d="M280.54,465.2a119.61,119.61,0,0,1-7.32-11.72l.76-.38a122.46,122.46,0,0,0,7.25,11.62Z"/><polygon class="cls-16" points="249.41 460.89 258.87 456.41 259.37 457.47 249.91 461.95 249.41 460.89"/><polygon class="cls-16" points="381.73 462.19 372.27 457.71 372.77 456.64 382.23 461.12 381.73 462.19"/><path class="cls-13" d="M332.12,443.57a15.72,15.72,0,0,0-2.54,1.49c-.07.27-2.83-.87-2.83-.87l4-6.06Z"/><path class="cls-6" d="M330.71,438.13s-4.59,15.25-4.65,16.9,2.71,2.83,3.63,3a3.25,3.25,0,0,0,1.71-.22,2.81,2.81,0,0,0,.55,1.72,13.66,13.66,0,0,0,3.8,2.54,2.79,2.79,0,0,0,1.5-.43,3.18,3.18,0,0,0,1,2.33,7.9,7.9,0,0,0,2.51,1.41,4.84,4.84,0,0,0,1.69-.13s-.13,1.17.09,1.32,2,1.83,3.93,1.81,7.55-9.88,8.35-10.87.43-4.05.06-5.15-2.14-1.47-2.63-2.82-.92-2.63-2.82-3.24a6.26,6.26,0,0,1-4-2.94,5.93,5.93,0,0,0-4.17-2.64,7.06,7.06,0,0,1-2.75-.55c-.74-.43-2.64-2.45-3.37-2.51s-3.62-.18-4.46.48"/><path class="cls-9" d="M338.22,443.7s-3.44,9.45-5.91,13.61l-.73-.43c2.43-4.1,5.84-13.44,5.85-13.46Z"/><path class="cls-9" d="M337.23,460.81a88.48,88.48,0,0,0,6.06-10.39l.77.34a85.55,85.55,0,0,1-6.13,10.52Z"/><path class="cls-9" d="M342.47,464.58a92.83,92.83,0,0,0,5.54-9.33l.76.38a91.46,91.46,0,0,1-5.6,9.42Z"/><path class="cls-3" d="M392.12,390.63l-12.66-3.76S354,405.44,340.15,419.15s-21.72,22.15-21.72,22.15l8.32,2.89,3.53-5.4s3.36-1.41,4.82-.76,2.49,2.19,3.24,2.57,2.88.12,3.5.38a2.33,2.33,0,0,1,1,.89s14.62-16.54,28.65-28.63,28.18-23.05,28.18-23.05Z"/><polygon class="cls-8" points="324.79 445.2 328.24 446.54 327 450.97 319.53 448.45 324.79 445.2"/><path class="cls-3" d="M302,490.07H280.63s6.72-10.8,15-21.36,18.06-22.15,18.06-22.15l9.76,3.22s-2.1,2.4-2.24,3.62-.42,2,.88,3.18a34.41,34.41,0,0,0,2.83,2.23c1.15.83,2.15,1.52,2.15,1.52C316.3,473,310.9,479.81,305.56,490.07Z"/></g></g></svg>