<svg xmlns="http://www.w3.org/2000/svg" viewBox="0 0 122.95 116.51"><defs><style>.cls-1{fill:#e3e0ff;}.cls-1,.cls-10,.cls-12,.cls-2,.cls-4,.cls-5,.cls-6,.cls-7,.cls-8,.cls-9{fill-rule:evenodd;}.cls-2{fill:#fff;}.cls-3,.cls-4{fill:#cfc7ff;}.cls-5{fill:#ffabcc;}.cls-6{fill:#2678fa;}.cls-7{fill:#ed87ab;}.cls-8{fill:#4d128f;}.cls-9{fill:#5712a6;}.cls-10{fill:#78e3cc;}.cls-11,.cls-12{fill:#e3e3fa;}</style></defs><g id="Layer_2" data-name="Layer 2"><g id="Layer_1-2" data-name="Layer 1"><path class="cls-1" d="M89.58,116.51A28.67,28.67,0,1,0,60.92,87.84a28.73,28.73,0,0,0,28.66,28.67"/><path class="cls-1" d="M78.19,89.5A44.75,44.75,0,1,0,33.45,44.75,44.84,44.84,0,0,0,78.19,89.5"/><path class="cls-1" d="M34.14,112.11A34.14,34.14,0,1,0,0,78a34.21,34.21,0,0,0,34.14,34.14"/><path class="cls-1" d="M40.93,82.88A38.62,38.62,0,1,0,2.3,44.26,38.69,38.69,0,0,0,40.93,82.88"/><polygon class="cls-1" points="63.52 114.14 61.82 115.12 60.12 116.1 60.12 114.14 60.12 112.17 61.82 113.15 63.52 114.14"/><path class="cls-2" d="M40.29,96.57h0a1.6,1.6,0,1,0,1.59,1.59,1.59,1.59,0,0,0-1.59-1.59m-2.41,2.79a.79.79,0,1,0,.79.79A.79.79,0,0,0,37.88,99.36Z"/><path class="cls-2" d="M101.94,55.27h0a1.59,1.59,0,1,0,1.59-1.59,1.59,1.59,0,0,0-1.59,1.59m2.78,2.41a.8.8,0,1,0,.8-.79A.79.79,0,0,0,104.72,57.68Z"/><polygon class="cls-2" points="34.33 15.81 32.63 16.79 30.93 17.77 30.93 15.81 30.93 13.85 32.63 14.83 34.33 15.81"/><polygon class="cls-1" points="52.22 4.09 50.53 3.11 48.82 2.13 50.53 1.15 52.22 0.16 52.22 2.13 52.22 4.09"/><polygon class="cls-1" points="112.28 8.76 111.77 6.86 111.26 4.96 113.16 5.47 115.05 5.98 113.66 7.37 112.28 8.76"/><path class="cls-2" d="M2.33,42.82A38.41,38.41,0,0,1,7,25.79H30.35c2.53,0,2.38,2.91,1.84,4.44s-4.37,10.58-4.37,10.58-.19.84-.52,2Z"/><path class="cls-2" d="M53,40.21h40.9s3.34,0,2.6-3.59-9-19.9-11.26-22.33S54.94,20.74,47.76,24s-7.53,11.49-6,14.28S53,40.21,53,40.21"/><polygon class="cls-1" points="9.14 34.3 7.44 33.31 5.74 32.33 7.44 31.35 9.14 30.37 9.14 32.33 9.14 34.3"/><path class="cls-1" d="M55.74,17.17s-2.05,3-2,4.24,4.67,19.21,4.67,19.21H56.36l-5.3-21.3Z"/><rect class="cls-3" x="37.05" y="32.55" width="1.73" height="9.66" transform="translate(-10.36 14.92) rotate(-19.64)"/><polygon class="cls-4" points="52 75.98 50.92 93.95 78.97 93.95 74.37 67.24 57.21 64.64 52 75.98"/><path class="cls-4" d="M48.09,43,44,38.81H25.22A5,5,0,0,0,21,41.67a12.55,12.55,0,0,0-.81,6.2H15.68V94H64.81V62.28Z"/><path class="cls-4" d="M28,28.41c-4.81-.3-5.15,1.76-3.42,6.38a3.61,3.61,0,0,0,3.13,2.33h7.89c3.22,0,4.08-.25,4.59-.71s-.3-3.7-1.16-5.67a3.39,3.39,0,0,0-3.13-2.33Z"/><rect class="cls-3" x="27.74" y="31.67" width="1.73" height="9.66" transform="translate(-10.6 11.74) rotate(-19.64)"/><path class="cls-4" d="M15.68,94l8.58-25.49c-4.4-3.8-16.51-3.55-18.83-9A34.15,34.15,0,0,0,4,94Z"/><path class="cls-4" d="M5.43,59.49C7.75,64.91,18.15,77,22.54,80.84l2-23.14-8.83-9.83H2.47a38.21,38.21,0,0,0,3,11.62"/><rect class="cls-3" x="39.01" y="69.04" width="30.53" height="5.6"/><polygon class="cls-2" points="21.77 50.79 28.93 68.76 44.02 68.76 44.02 69.31 29.15 69.31 28.75 69.31 7.41 69.31 7.41 68.76 28.34 68.76 21.26 50.99 21.77 50.79"/><polygon class="cls-5" points="80.81 82.23 80.81 89.21 75.96 90.47 73.67 81.93 80.81 82.23"/><polygon class="cls-5" points="90.07 71.34 92.45 71.01 94.33 74.27 91.2 77.48 86.83 73.12 90.07 71.34"/><path class="cls-6" d="M47.89,46.55s7.28-2.78,9-2.28,7.4,6.26,8.68,8.77a9.85,9.85,0,0,1,1.22,4.29L48.2,63.92s-4.7-8.89-4.6-11,4.29-6.38,4.29-6.38"/><polygon class="cls-7" points="64.52 47.74 65.06 48.27 66.14 50.82 66.5 53.58 64.03 55.4 60.37 47.71 64.52 47.74"/><path class="cls-1" d="M67.44,57.12l-4.35-1.51,6.33-11.79a1.59,1.59,0,0,1,1.07-.69l8-1.41s.4-.07.53.19l.18.4a.87.87,0,0,1-.08.86l-3,5.22-.8,5.2Z"/><path class="cls-2" d="M69,44.65l.45-.83a1.59,1.59,0,0,1,1.07-.69l.58-.11,1.66,1.66-1.86,1.87Z"/><path class="cls-4" d="M67.44,57.12,64.18,56l6.08-11.33A1.59,1.59,0,0,1,71.33,44l7.89-1.39a1,1,0,0,1-.15.59l-3,5.22-.8,5.2Z"/><path class="cls-7" d="M43.49,36.73l-.09-1,1.18-.68s4,2.48,4.64,2.39,1.19-.24,1.19-.24l1.05.15s.8,1.34.17,2.14-1.52.9-2.68.72-3-1.25-5.46-3.49"/><path class="cls-5" d="M76.87,52.39s-2.77.72-3.49,1a3.44,3.44,0,0,1-1,.26,22.38,22.38,0,0,1,1.43-3,9.88,9.88,0,0,1,1.25-.53l1-1.68a2.57,2.57,0,0,1,1.27,1.14c.27.71-.45,2.86-.45,2.86"/><path class="cls-8" d="M63.45,64.92l-7.7,6.27S69.53,68.86,69.89,69s2.25,8.11,3.55,13.37c.64,2.6,1.11,4.53,1.11,4.53,2,1.07,4.48.66,6.26,0V61.7S75.08,58.3,73.29,59s-9.84,5.9-9.84,5.9"/><path class="cls-9" d="M53.91,27a4.58,4.58,0,0,0,3.2-1.66,2.74,2.74,0,0,0-.35-4.2c-1.27-1.06-3.42-.22-4.64-.35s-4.82-1.63-7.27.52c-2.67,2.33-2.8,9.47-.15,12.32S53.91,27,53.91,27"/><polygon class="cls-7" points="47.67 31.09 44.32 29.24 45.17 30.34 43.63 36.1 49.76 39.64 52.19 30.57 47.67 31.09"/><path class="cls-5" d="M46,27.88c-2.23-3.85-3.89,3.18-.63,3.31,0,0,0,2.52.51,3.07a10.67,10.67,0,0,0,4.44,2.52c1.68.29,2.61-.51,3.19-2.77a3.38,3.38,0,0,0,.08-.34h0c.15-.66.31-1.55.46-2.5h0c.12-.72.84-2,.92-2.41a27.59,27.59,0,0,0,0-2.78,9.81,9.81,0,0,1-1.79-.16A15,15,0,0,1,49,24.55s-.52,1.52-.82,2.11a6.9,6.9,0,0,0-.84,1.93c-.08.67-.25,1.47-.25,1.47l-1.17-.84Z"/><path class="cls-7" d="M52.19,34.69a2.24,2.24,0,0,1-2.59-1.6l.52-.2a1.69,1.69,0,0,0,1.94,1.26Z"/><path class="cls-6" d="M40.54,54.9h-3L33.2,47.38c-.8-1.4-.72-3.76,1.43-6.27s8.77-5.37,8.77-5.37a7.65,7.65,0,0,0,4.12,2.87,4.08,4.08,0,0,0,3.94-1.25s6.08.89,8.77,3.22,4.83,7.69,4.83,7.69L52.71,51.14l-6.63,5.55Z"/><path class="cls-2" d="M42.27,42.8s1.82,4.3,2.51,6.47l-.52.16c-.69-2.14-2.5-6.41-2.5-6.42Z"/><path class="cls-9" d="M47.16,60.63s28.64-9,29.54-9a7.43,7.43,0,0,1,6.08,3.4c1.06,1.46,3.16,4.9,5.13,8.2,2.36,4,4.54,7.73,4.54,7.73-.63,2-1.6,3.1-4.66,4.11l-12.71-12s-5.65,3-10.93,5.75A94.9,94.9,0,0,1,55.57,73c-2.86.89-5.37.71-7.87-2.33s-4.3-9.85-4.3-9.85Z"/><path class="cls-2" d="M60.19,50.51h2.6l.83-6.89h.78v-.71h-.85l-.32-.9H57.15l-.32.9H56v.71h.77l.84,6.89Z"/><path class="cls-10" d="M60.48,48.68a2.2,2.2,0,1,0-1.95-2.19,2.09,2.09,0,0,0,1.95,2.19"/><path class="cls-5" d="M56.61,52.39C56.12,52.61,47,63.67,45.19,64A2.93,2.93,0,0,1,42,62.77c-.54-.71-4.48-7.87-4.48-7.87a11.94,11.94,0,0,1,2.87-3,17.4,17.4,0,0,1,4.29-1.79l1.52,3.13L53.25,49a9.33,9.33,0,0,1,1.69-2.43A3.1,3.1,0,0,1,57,45.75l.12,1a32.63,32.63,0,0,0,4.16,0,5.65,5.65,0,0,0,2-.67,1.53,1.53,0,0,1,.46,1.58,6.81,6.81,0,0,0-.34,1.24c-.52,2.85-2.2,2.6-5.09,3.28a13.2,13.2,0,0,0-1.75.3"/><polygon class="cls-6" points="80.31 68.44 75.04 63.47 65.03 68.74 64.77 68.25 74.95 62.89 75.13 62.8 75.27 62.93 80.69 68.04 80.31 68.44"/><polygon class="cls-7" points="46.24 53.29 43.49 54.93 43.21 54.46 45.97 52.82 46.24 53.29"/><path class="cls-7" d="M55.82,46.67a6.27,6.27,0,0,1,1.27-.27l0,.34A5.47,5.47,0,0,0,56,47Z"/><rect class="cls-11" x="57.67" y="43.58" width="5.8" height="0.28"/><path class="cls-12" d="M73.81,46.66c.54,0,.72.43.41,1a2,2,0,0,1-1.53,1c-.54,0-.72-.43-.41-1a2,2,0,0,1,1.53-1"/><path class="cls-7" d="M75.58,49.2l-.5.87.76-.29.81-.3-.76,0-.31-.24"/><polygon class="cls-2" points="68.01 46.45 65.93 50.32 65.51 51.1 66.28 51.86 66.35 51.94 68.85 47.29 68.01 46.45"/><path class="cls-8" d="M75.27,89.21V94H88.72s.35-1.94-.65-2.31l-6.65-2.46v-1s-.06-.37-.33-.37H79.94s-.39,0-.39.32v1.06c-1.19.71-2.68.51-4.28,0"/><path class="cls-8" d="M90.13,76.42l2.31,4.24,11.65-6.72s-.67-1.86-1.72-1.68l-7,1.2-.49-.86s-.23-.28-.47-.15l-1,.58s-.34.19-.18.47l.52.92a5.53,5.53,0,0,1-3.64,2"/><rect class="cls-3" x="45.16" y="69.04" width="24.21" height="6.91"/></g></g></svg>