<svg xmlns="http://www.w3.org/2000/svg" viewBox="0 0 126.8 121.58"><defs><style>.cls-1{fill:#e3e0ff;}.cls-1,.cls-10,.cls-12,.cls-13,.cls-2,.cls-3,.cls-4,.cls-5,.cls-6,.cls-7,.cls-8,.cls-9{fill-rule:evenodd;}.cls-2{fill:#fff;}.cls-3{fill:#cfc7ff;}.cls-4{fill:#993dff;}.cls-5{fill:#5712a6;}.cls-6{fill:#7d21e8;}.cls-7{fill:#b06bff;}.cls-8{fill:#e3e3fa;}.cls-9{fill:#ed87ab;}.cls-10{fill:#ffabcc;}.cls-11,.cls-12{fill:#3d94ff;}.cls-13{fill:#2678fa;}</style></defs><g id="Layer_2" data-name="Layer 2"><g id="Layer_1-2" data-name="Layer 1"><path class="cls-1" d="M85.16,83.28A41.64,41.64,0,1,0,43.52,41.64,41.72,41.72,0,0,0,85.16,83.28"/><path class="cls-1" d="M41.18,116.21A40.35,40.35,0,1,0,.83,75.86a40.43,40.43,0,0,0,40.35,40.35"/><path class="cls-1" d="M96,121.58A30.83,30.83,0,1,0,65.15,90.75,30.89,30.89,0,0,0,96,121.58"/><path class="cls-1" d="M66.14,114.88a1.48,1.48,0,1,0-1.47-1.48,1.48,1.48,0,0,0,1.47,1.48"/><polygon class="cls-1" points="18.93 115.3 18.93 113.29 18.93 111.28 17.19 112.29 15.46 113.29 17.19 114.29 18.93 115.3"/><polygon class="cls-2" points="76.25 18.85 76.25 16.84 76.25 14.84 74.51 15.84 72.78 16.84 74.51 17.85 76.25 18.85"/><path class="cls-1" d="M9,32.59a1.48,1.48,0,1,0-1.47-1.47A1.47,1.47,0,0,0,9,32.59"/><polygon class="cls-1" points="30.36 22.9 30.36 20.89 30.36 18.88 28.62 19.89 26.89 20.89 28.62 21.89 30.36 22.9"/><polygon class="cls-2" points="82.6 52.11 82.6 50.1 82.6 48.09 80.86 49.1 79.12 50.1 80.86 51.1 82.6 52.11"/><path class="cls-3" d="M85.84,71.05S84.34,67,82,66.36s-3.07.73-4.74-.83-1.87-2.66-4.17-2.4-2.76-.37-3.75-2.76-3.7-5.27-6.67-4.74-4.06-.53-4.74-1.77-2.62-4.76-5.52-4.55-3.91,1.16-5,3.5c-2.24,5-6.29-1.82-10.16,9.28s-13.94-1.7-13.94-1.7l-5.95,14.3H86.47Z"/><path class="cls-3" d="M66.42,50V34.28H75V50.6H67.5ZM49.11,43.47H41.9V38.59h7.21Zm2,0V23.78H63.82V48.47l-8.68-5Z"/><path class="cls-3" d="M4.6,75.52a.83.83,0,1,1,0-1.66h84a.83.83,0,1,1,0,1.66Z"/><path class="cls-4" d="M33,49l-.31-1.88H44.94a38.32,38.32,0,0,1,9.63,1.67c4.37,1.5,14.36,7.19,14.36,7.19a55.1,55.1,0,0,1,7.76,2.28c3.91,1.5,4.72,2.51,4.72,2.51l-4.83,5.61s-28.35-3.21-31.22-5.8S33,49,33,49"/><path class="cls-5" d="M49.34,56.19l19.24.45s-7.71-4.71-13.2-6.7S37.85,48.4,37.85,48.4Z"/><path class="cls-5" d="M70.32,73.89,68.14,73H11.35l24-18s21.47,1.79,24.16,5.71S70.32,73.89,70.32,73.89"/><path class="cls-5" d="M29.93,62.72l-.3,0c-2.73,0-5,2.9-5,6.46s2.23,6.45,5,6.45h2.56c2.74,0,5-2.89,5-6.45s-2.06-6.24-4.65-6.44h0l-.3,0-.3,0Z"/><path class="cls-5" d="M70.87,62.72l-.3,0c-2.73,0-5,2.9-5,6.46s2.23,6.45,5,6.45h2.56c2.74,0,5-2.89,5-6.45S76,62.92,73.44,62.72h0l-.3,0-.3,0Z"/><polygon class="cls-5" points="3.58 66.19 3.58 71.98 17.45 71.98 17.45 61.06 5.97 61.06 3.58 66.19"/><path class="cls-5" d="M54.11,62.7l.3,0h0c2.6.2,4.65,3,4.65,6.44s-2.22,6.45-5,6.45H51.54l-1.13-2.15h0a7.58,7.58,0,0,1-1.27-4.3,7.68,7.68,0,0,1,1.24-4.28h0l1.15-2.16H53.8l.31,0"/><path class="cls-6" d="M51.54,75.61c2.73,0,5-2.9,5-6.45s-2.23-6.46-5-6.46-4.95,2.9-4.95,6.46,2.22,6.45,4.95,6.45"/><path class="cls-1" d="M51.28,73.69c1.91,0,3.48-2,3.48-4.53s-1.57-4.54-3.48-4.54-3.49,2-3.49,4.54,1.57,4.53,3.49,4.53"/><path class="cls-5" d="M12.83,62.7l.3,0h0c2.59.2,4.64,3,4.64,6.44s-2.21,6.45-5,6.45H10.27L9.14,73.46a7.58,7.58,0,0,1-1.27-4.3,7.68,7.68,0,0,1,1.24-4.28h0l1.16-2.16h2.26l.3,0"/><path class="cls-6" d="M10.27,75.61c2.73,0,5-2.9,5-6.45s-2.22-6.46-5-6.46-5,2.9-5,6.46,2.23,6.45,5,6.45"/><path class="cls-1" d="M10,73.69c1.92,0,3.48-2,3.48-4.53S11.92,64.62,10,64.62s-3.49,2-3.49,4.54S8.08,73.69,10,73.69"/><path class="cls-7" d="M17.29,72H45.84c-2.2-7.51,4.65-14,9.45-9.09a9.51,9.51,0,0,1,2,9.09h15.3c.93-.49,1.79-1,1.94-1,.44-.2.29-1.66.29-2.28a3.32,3.32,0,0,0-1.26-2.43c-1.79-1.79,1.52-3.31-3.35-5.75C67.23,59,57,56.84,52.52,55.67s-11.14-8.93-22-8.64-17.22,4-21,5.83A32.5,32.5,0,0,1,2.36,55.1c-.5.25,0,1.4-.85,2.41a2.81,2.81,0,0,0-.76,1.8v5.91C.75,67-.36,68,.12,69.77S2.86,72,2.86,72h1.7C2.4,64.24,9.3,58.09,14,62.89A9.53,9.53,0,0,1,16,72Z"/><path class="cls-2" d="M70.16,60.84l-14.9-2.51a14.46,14.46,0,0,0,5.93,2.74c3.21.53,10,1.07,10,1.07Z"/><path class="cls-4" d="M69.17,72,73,69.77a1,1,0,0,0,.31-1.22,26.75,26.75,0,0,0-4.86-4.84c-.48-.08-4-.06-4-.06s2.09,4.21,2,4.63A4.66,4.66,0,0,1,64.86,70c-.63.42-3.88.29-3.88.29l2.68-6.87s.13-.9,1.71-.9,7,.21,7,.21l-1.62-1.9c-1.48-1.74,10.15-2,10.88.28l.51,1.62A3,3,0,0,1,83,64.32c0,.77-.09,4.61,0,5s.61,1.11.48,1.53a4.92,4.92,0,0,1-2,1.16Z"/><path class="cls-5" d="M83,65.55l0,3.74c.13.37.55,1,.5,1.45H71.32c2.56-1.48,3.25-1.32-.66-5.13C69,64,68.76,63.71,68,63.68c0,0,2.59,0,0,0,3.69,0,3-.31,5.58,2.33,2.27,2.35,1.68,2.19,5.41,2.19,1.84,0,2.16-.74,3.56-2.19Z"/><path class="cls-5" d="M13.46,57.79h2.43a.39.39,0,0,1,.39.39h0a.39.39,0,0,1-.39.39H13.46a.39.39,0,0,1-.39-.39h0a.39.39,0,0,1,.39-.39"/><path class="cls-5" d="M27.6,57.79H30a.4.4,0,0,1,.39.39h0a.4.4,0,0,1-.39.39H27.6a.4.4,0,0,1-.39-.39h0a.4.4,0,0,1,.39-.39"/><path class="cls-5" d="M29.31,48.52a29.14,29.14,0,0,0-1,7.77l16.95.77a3.37,3.37,0,0,0,.52-1.85c.06-1.26-4.57-4.57-8.18-6a19.89,19.89,0,0,0-8.33-.74"/><path class="cls-7" d="M42,54.75a5,5,0,0,0-2-1.7,6.37,6.37,0,0,0-2.86-.17c-1.8.77-1,3,1,3h3.32c.16.58.05.66.69.66,1.07,0,1.72.14,1.83-.25a4.21,4.21,0,0,0-.75-1.53,11.05,11.05,0,0,0-1.24,0"/><path class="cls-5" d="M16.72,55.76a27.77,27.77,0,0,1,1.5-5.27,30.68,30.68,0,0,0-3,1.1c-1.3.55-2.8,4-2.8,4Z"/><path class="cls-5" d="M19.08,50.23a26.17,26.17,0,0,0-1.62,5.56l8.17.37a30,30,0,0,1,1.86-7.52,39.19,39.19,0,0,0-8.41,1.59"/><path class="cls-5" d="M1.73,57.18a9.41,9.41,0,0,0,5.75-1.85L2.36,55.1c-.45.23-.13,1.17-.63,2.08"/><path class="cls-5" d="M65.93,66.88c-.28-.65-.64-1.41-.93-2l-.58-1.19L64,62.88a.93.93,0,0,0-.31.5v0L64,64.7l.68,2.52,0,.16A1.19,1.19,0,0,1,64,68.91c-1.15.56-3,1.34-3,1.34s3.25.13,3.88-.29a5.88,5.88,0,0,0,.76-.63c.15-.15.3-.31.43-.46a1.79,1.79,0,0,0,.36-.59,4.94,4.94,0,0,0-.48-1.4"/><path class="cls-5" d="M70.74,60.79l1.62,1.9h9.77l-.49-1.55c-.46.64-2.35.68-3.67.74a25.76,25.76,0,0,1-7.23-1.09"/><path class="cls-5" d="M78.33,63.69c.44,0,.79.51.79,1.14S78.77,66,78.33,66s-.8-.51-.8-1.14.36-1.14.8-1.14"/><polygon class="cls-8" points="18.03 44.28 16.29 43.27 14.55 42.27 14.55 44.28 14.55 46.28 16.29 45.28 18.03 44.28"/><polygon class="cls-2" points="25.86 62.48 25.86 60.48 25.86 58.47 24.12 59.48 22.38 60.48 24.12 61.48 25.86 62.48"/><path class="cls-5" d="M22.22,39.7l-.66.46s-.25-1.25-.58-2.27a4.47,4.47,0,0,1-.11-2.61.8.8,0,0,1,.6-.46,2,2,0,0,1,1.55-1,12.24,12.24,0,0,0,3.12-.25c.75-.29,1.5.47,1.06,1.66s-2.1,1-2.1,1-.4,2.81-2.88,3.42"/><path class="cls-9" d="M25.28,41.74,24.5,41,24,40.82l.42-1.28-1.82-1.26-.44,0-.74,2.2-.51.09-.11,1.06s3.78,1.58,4.31,1.37.14-1.28.14-1.28"/><polygon class="cls-10" points="28.56 81.84 26.33 82.21 26.39 84.69 29.69 85.06 30.11 82.42 28.56 81.84"/><path class="cls-5" d="M29.2,84.69h-3l-.18,2h7.21a2.75,2.75,0,0,0-.74-1.43c-.39-.26-1.83-.37-2.54-.62l.13-.72h-.25c-.47,0-.6.59-.62.72"/><polygon class="cls-10" points="18.55 81.84 16.28 82.21 16.16 84.69 19.53 84.69 20.25 81.55 18.55 81.84"/><path class="cls-5" d="M15.44,57.5s1.14,10.45,1.08,12-.58,5.37-.59,8.64c0,1.68,0,3.71,0,5.3h4.26c1-4.62,2.92-13.33,3-14.36.1-1.42.41-4.72.41-4.72s.84,3.79,1,4.49,0,2.82.18,3.71,1,7.35,1.44,10.88h4.05c.1-4.7.55-14.69.44-15.1s-2.1-10.86-2.1-10.86Z"/><path class="cls-5" d="M19,84.49l-.05.2H16l-.33,2h7.21s-.14-1.08-.64-1.43a24.35,24.35,0,0,0-2.49-.62l.2-.75h-.32c-.34,0-.5.33-.57.55"/><path class="cls-10" d="M22.63,37.11s-.18-.49-.53-.47-.64.62-.49,1.2.49.77.64.77a.58.58,0,0,0,.25-.06,2.75,2.75,0,0,0,.5,1.37,2.78,2.78,0,0,0,2.06.72c.49-.15.56-1.37.66-2.19a25.79,25.79,0,0,0,0-2.87l-1.19.06a1.9,1.9,0,0,1-.38.85c-.26.2-.47.22-.6.53a7.46,7.46,0,0,0-.24,1.24l-.55-.4Z"/><path class="cls-10" d="M39.11,31.28a4.44,4.44,0,0,1,0,1.41h0l-.31.93h0c-.08.18-2.35,5.21-3,6.07s-4.62,1.68-4.62,1.68A7.72,7.72,0,0,1,32,44,6.57,6.57,0,0,1,32,45.85a42.13,42.13,0,0,0,5.83-3c1.12-1,3.53-8.08,3.53-8.08a2.39,2.39,0,0,0,1.22-1.63,5,5,0,0,1,.44-.94,1.34,1.34,0,0,1,.11-.14c.23-.32.44-.55.58-.74a.72.72,0,0,0,.2-.37c0-.24-.25-.1-.44.06a4.1,4.1,0,0,0-.32.31,3.61,3.61,0,0,1-.69.62.08.08,0,0,1,0-.07s.14-.25.3-.55a10.77,10.77,0,0,0,.59-1.08c.15-.4,0-.5-.19-.38a16.46,16.46,0,0,0-1,1.46.09.09,0,0,0,0,0c-.09.11-.25.11-.22,0v0a19.13,19.13,0,0,0,.68-2.06c0-.27-.07-.43-.28-.3A17.42,17.42,0,0,0,41.16,31c-.1.14-.29.22-.27.06s.42-1.8.44-1.94-.1-.33-.29-.15a11.05,11.05,0,0,0-.76,1.89,2.33,2.33,0,0,1-.22.47c-.13.21-.24.27-.27.18a1.78,1.78,0,0,1-.08-.18,5.45,5.45,0,0,1-.23-.51c-.08-.19-.29-.37-.36,0a2.36,2.36,0,0,0,0,.47"/><path class="cls-9" d="M40.33,33.58a2,2,0,0,0-.46-1.89l.18-.2a2.28,2.28,0,0,1,.53,2.16Z"/><path class="cls-5" d="M24.5,41h0l3.74.67a25,25,0,0,0,3.84-.8,4.23,4.23,0,0,1,1.18,2.56A5.52,5.52,0,0,1,33.31,46s-4.39,1.82-4.6,2A13.42,13.42,0,0,0,28,53.7L28,54v0l0,.11c.39,2.57,1,5.13,1,5.13a16.92,16.92,0,0,1-7.38,2,13.8,13.8,0,0,1-6.08-1.08,83.17,83.17,0,0,1-.74-8.52c0-.32,0-.64,0-.95l-.21,0-1.89-2.36s1.47-5.68,2.5-6.42,5.7-1.44,5.7-1.44.1.94,1.67,1.27S24.5,41,24.5,41"/><path class="cls-10" d="M12,52.16l.71-3.71,4.55,1.19-1.16,4c-.15.24.64,7.13.64,7.13a4.62,4.62,0,0,1,1,.81,21.35,21.35,0,0,1,1.47,1.76s-2,.71-3.07-.34a5.32,5.32,0,0,1-1.35-2.21s-3.48-6.27-2.8-8.62"/><path class="cls-10" d="M25,36.77l-.5-1.13A7.55,7.55,0,0,1,26,35.55a6.61,6.61,0,0,1,.67.07,20.77,20.77,0,0,1,0,2.72c-.1,1-.63,2.19-1.63,2.3a3,3,0,0,1-1.87-.55Z"/><path class="cls-5" d="M26.38,38.85a1,1,0,0,0-.41-.41,1.37,1.37,0,0,0-1.71.72c-.18.39-1.21.17-1-1.1s.34-1.74.34-1.74l-.88.41a22.65,22.65,0,0,0-.17,2.33,1.8,1.8,0,0,0,1.2,1.55,2.66,2.66,0,0,0,1.69.13,2,2,0,0,0,1.16-2.08Z"/><path class="cls-5" d="M24.51,39.48l-.08-.59-.37.31-.93-1.14a.88.88,0,0,0-.08,1c.36.56,1.46.37,1.46.37"/><path class="cls-5" d="M26.94,35l-.23.91s.77-.22,1-1.46c.33-1.88-2.23-2.09-2.56-1-.58-.74-2.27-.65-2.46.25a1,1,0,0,0-1.21,1.07c.07.71,5.47.19,5.47.19"/><rect class="cls-11" x="16.42" y="47.52" width="3.56" height="0.27" transform="translate(-32.64 51.79) rotate(-73.74)"/><path class="cls-12" d="M28.2,44.1c.07.4.15.91.2,1.44a10,10,0,0,1,0,1.64l-.27,0a9.39,9.39,0,0,0,0-1.59c0-.53-.12-1-.19-1.42Z"/><polygon class="cls-8" points="106.21 36.36 106.21 34.36 106.21 32.35 104.47 33.35 102.73 34.36 104.47 35.36 106.21 36.36"/><path class="cls-2" d="M114.14,67.93h0a1.63,1.63,0,1,1,1.63-1.63,1.63,1.63,0,0,1-1.63,1.63m-2.46-2.85a.81.81,0,1,1,.81-.8A.81.81,0,0,1,111.68,65.08Z"/><polygon class="cls-2" points="101.47 63.81 101.47 61.8 101.47 59.79 99.73 60.8 97.99 61.8 99.73 62.8 101.47 63.81"/><path class="cls-13" d="M91.56,58.23l14.29-8.72c14.83,3.37,15.18,18.26,15.33,33.86.07,7.28.93,19.95.93,21.28s-12.27,6.4-24.54,5.87c-6.74-.29-11.68-2.67-14.37-5.14-1.06-1-.25-17.8-.34-21.07-.2-7.27,8.7-26.08,8.7-26.08"/><path class="cls-10" d="M78.24,73.38s-4.08,5.68-5.09,5.37c-.44-.14-1.32-1.59-2.46-3.68s-8.25-14.44-8.31-16c-.07-1.93,1.24-4.38,1.32-5.69s-.68-.93-1.06-.4-.91,1.15-1.19,1.53-.79-.52-1-2.35-.69-5.28-1.13-6-.93-.17-1,.26-.05,5.7-.13,6.19-.59.11-.77-.38-1.09-6.43-1.61-7-.88-.15-1.09.68.49,6.09.51,6.73-.49.51-.69.08a57.17,57.17,0,0,0-2.09-5.35c-.42-.49-1-.32-.86,1s1.48,5.44,1.45,5.59a.27.27,0,0,1-.14.19c-.53-.32-1.9-2.95-2.35-3.57s-1.16-1.24-1.28-.51S50,52,50.81,54c.07.18.15.34.21.5a15,15,0,0,1,.62,3.19c.1,1.54,1.68,4.22,3.83,5.79C58.69,74.3,61.39,90,66.68,95.55c5.51,5.83,13.23,2.09,19.38-5.09s7.32-11.91,7.32-11.91Z"/><path class="cls-5" d="M64.6,64.07c-.45-.87-.86-1.68-1.2-2.4a16.15,16.15,0,0,0-4.49,1,19.38,19.38,0,0,0-3.31,1.24c.25.87.5,1.76.75,2.68.84-.31,4.74-1.74,6.89-2.25.49-.12.95-.21,1.36-.28"/><path class="cls-10" d="M105.78,47.13l2.51,3.08C105.62,51.14,96,57.49,95,54.93l-3.33-8.45,4-6.19Z"/><path class="cls-5" d="M87.75,32S85,31.47,84,29.28s-.06-6.39,3.53-6.51,4.07,1,6.8.35,6.46-1.68,9.21.19c10.46,7.09,2.24,23.82,2.24,23.82l-5.41.58L96,41.58l-4,3S87.91,42.12,87.75,32"/><path class="cls-10" d="M97.23,48.75s-4.43,3.67-6.51,1.59-2.56-6-2.56-6a2.08,2.08,0,0,1-1.39-.73c-.62-.71.74-3.18.28-4.83s0-6.76.1-7.52S88.82,31,88.82,31s-.22,3.14.29,4.13,1.52,1.33,1.77,1.65,1.18,6,1.18,6l1.27-1.59-.57-4.29s0-1.81,1.33-2.16,3,1.68,2.9,3.81a4.65,4.65,0,0,1-1,3l.85,5.05Z"/><path class="cls-13" d="M107.3,49.43a33.6,33.6,0,0,0-10.23,1.65C92.15,52.81,84.85,57.53,82,62.22s-9.16,15.92-9.16,15.92a20.76,20.76,0,0,0,7,7.46,19.84,19.84,0,0,0,10,3.07Z"/><path class="cls-9" d="M73.53,86s-1.39-3.73-.7-6.71l.52.12c-.66,2.83.68,6.39.68,6.4Z"/><polygon class="cls-2" points="95.98 78.99 89.35 88.39 88.91 88.08 95.54 78.69 95.98 78.99"/><path class="cls-13" d="M107.77,51.82l3.27-.3s-.8-.76-1.53-1.43-1.06-1.08-1.39-1.35-4.76-.18-8.29.55A18.25,18.25,0,0,0,92.93,53Z"/><path class="cls-5" d="M61,66a2.64,2.64,0,1,0-2.63-2.64A2.64,2.64,0,0,0,61,66"/><path class="cls-5" d="M97.57,110.52c-6.74-.29-11.68-2.67-14.37-5.14a1.22,1.22,0,0,1-.25-.62,48.72,48.72,0,0,1-1.63,6.55c-.47,1.26-1.36,3.47-2.12,5.31A30.84,30.84,0,0,0,121.5,108c.4-1.7.57-3.06.61-3.34-.31,1.41-12.43,6.35-24.54,5.82"/></g></g></svg>