<svg xmlns="http://www.w3.org/2000/svg" viewBox="0 0 126.18 125.58"><defs><style>.cls-1{fill:#e3e0ff;}.cls-1,.cls-10,.cls-11,.cls-12,.cls-13,.cls-14,.cls-15,.cls-16,.cls-17,.cls-19,.cls-2,.cls-20,.cls-22,.cls-3,.cls-4,.cls-5,.cls-6,.cls-9{fill-rule:evenodd;}.cls-2{fill:#fff;}.cls-3{fill:#cfc7ff;}.cls-4{fill:#5712a6;}.cls-5{fill:#78e3cc;}.cls-6{fill:#cff2eb;}.cls-19,.cls-7{fill:#454582;}.cls-10,.cls-8{fill:#7d21e8;}.cls-9{fill:#26e0fa;}.cls-11{fill:#ed87ab;}.cls-12{fill:#ffabcf;}.cls-13{fill:#4d128f;}.cls-14{fill:#1a8aeb;}.cls-15{fill:#2678fa;}.cls-16{fill:#bdb5ed;}.cls-17{fill:#595c9e;}.cls-18{fill:#e3e3fa;}.cls-20{fill:#d1ccff;}.cls-21{fill:#a399e3;}.cls-22{fill:#1c1761;}</style></defs><g id="Layer_2" data-name="Layer 2"><g id="Layer_1-2" data-name="Layer 1"><path class="cls-1" d="M74.93,44.73A40.43,40.43,0,1,1,34.5,85.15,40.43,40.43,0,0,1,74.93,44.73"/><path class="cls-1" d="M33.64,39.52A33.64,33.64,0,1,1,0,73.16,33.65,33.65,0,0,1,33.64,39.52"/><path class="cls-1" d="M78.16,6.25A39.41,39.41,0,1,1,38.75,45.66,39.41,39.41,0,0,1,78.16,6.25"/><polygon class="cls-1" points="38.68 112.22 38.68 115.48 38.68 118.75 35.86 117.11 33.03 115.48 35.86 113.85 38.68 112.22"/><polygon class="cls-1" points="14.63 31.21 15.98 33.55 17.33 35.89 14.63 35.89 11.93 35.89 13.28 33.55 14.63 31.21"/><polygon class="cls-2" points="86.83 26.06 86.12 28.69 85.42 31.32 83.49 29.39 81.57 27.47 84.2 26.77 86.83 26.06"/><path class="cls-3" d="M99.68,38.47s.35-1.68.79-3,.65-4-.67-4.12A2.58,2.58,0,0,0,97.72,30a16.55,16.55,0,0,1-4.19-.34c-1.88-.73-2.61,3.19.57,3.56,0,1.23-.16,5.56.89,5.87A2.44,2.44,0,0,0,96.25,39l.12.37-.64.29s-4.39,1.08-5.53,2a10.1,10.1,0,0,0-1.79,2.83L72.19,40.15,61.46,43l7.86,7.85.59.16a20.62,20.62,0,0,0,3.62,2.55,4.15,4.15,0,0,0,2.63.26S83.85,60,86.37,59.12c.84-.28,1.82-1.47,2.75-2.93l1.93.52c-.51,3.65-1.44,7.49-1.44,7.49l.19.11c-.78,4.08-2.21,11.54-2.33,12s.46,14,.59,20.29h.34l.12.78h-.28l.19,1c-1,.35-2.9.5-3.42.85a3.64,3.64,0,0,0-1,1.91H93.7l-.23-2.75H93.2l0-1.75h.27C94.06,91.82,95.19,83,95.44,82c.27-1.2,0-4,.24-5s1.35-6,1.35-6,.43,4.44.56,6.34c.09,1.38,2.64,13.09,4,19.3H102l.16.74h-.27l.27,1c-.93.35-2.86.5-3.35.85-.67.47-.86,1.91-.86,1.91h9.69l-.44-2.75H107l-.09-1.75h.46c0-2.13-.06-4.87-.07-7.12,0-4.39-.71-9.59-.79-11.61,0-1.33.61-8,1.06-12.29l.18-.09s.24-1.66.5-4.16c2,.53,9.41,2.58,10,2.64a2.44,2.44,0,0,0,2.65-1.28l.39-1,1.32-4.93c.64-2.4-.75-3.26-1.8-3.62l-7.49-2c-.68-2.06-3.34-8.94-5-10.15-1.39-1-7.76-2-8.34-2.06Z"/><path class="cls-3" d="M61.59,15H30A7,7,0,0,0,23,22v78.18c0,.21,0,.42,0,.62H68.5c0-.2,0-.41,0-.62V22A7,7,0,0,0,61.59,15"/><polygon class="cls-1" points="59.42 0 60.77 2.34 62.13 4.68 59.42 4.68 56.72 4.68 58.07 2.34 59.42 0"/><polygon class="cls-2" points="74.24 108.1 73.71 110.07 73.19 112.04 71.74 110.6 70.3 109.16 72.27 108.63 74.24 108.1"/><path class="cls-4" d="M66.55,9H34.9A7,7,0,0,0,28,15.9V94.08A7,7,0,0,0,34.9,101H66.55a7,7,0,0,0,6.94-6.94V15.9A7,7,0,0,0,66.55,9"/><path class="cls-2" d="M66.14,11.56H61.79v.72A2.83,2.83,0,0,1,59,15.1H42.47a2.83,2.83,0,0,1-2.82-2.82v-.72H35.31a4.88,4.88,0,0,0-4.87,4.86V94a4.88,4.88,0,0,0,4.87,4.86H66.14A4.88,4.88,0,0,0,71,94V16.42a4.88,4.88,0,0,0-4.86-4.86"/><path class="cls-5" d="M50.72,26.07a6.08,6.08,0,1,0,6.09,6.08,6.08,6.08,0,0,0-6.09-6.08"/><path class="cls-6" d="M50.72,28.13h0A2.25,2.25,0,1,0,53,30.38a2.24,2.24,0,0,0-2.25-2.25M46.3,36.32a6.08,6.08,0,0,0,8.85,0,4.6,4.6,0,0,0-8.85,0Z"/><path class="cls-6" d="M66.31,41.94H34.92a.77.77,0,0,0-.76.76v3.15a.77.77,0,0,0,.76.76H66.31a.76.76,0,0,0,.75-.76V42.7a.76.76,0,0,0-.75-.76"/><path class="cls-6" d="M66.31,51.28H34.92a.77.77,0,0,0-.76.76v3.15a.77.77,0,0,0,.76.76H66.31a.76.76,0,0,0,.75-.76V52a.76.76,0,0,0-.75-.76"/><path class="cls-5" d="M55.75,60.62H45.48a1,1,0,0,0-.95,1v2.77a1,1,0,0,0,.95,1H55.75a1,1,0,0,0,1-1V61.57a1,1,0,0,0-1-1"/><path class="cls-7" d="M36,44.72h0a.16.16,0,0,1,.18-.26c.76.52,1.93-.21,3.14-1,1.49-.93,3-1.9,4.14-.76a1.42,1.42,0,0,1,.49,1,9.58,9.58,0,0,1,1.44.14,5.15,5.15,0,0,0,3.18-.55,3.35,3.35,0,0,1,1.46-.41c.8.07.83.72.78,1.11l.09-.08c.79-.44,2.52-1.43,3.61-1.07.66.23.69.63.57,1a2.42,2.42,0,0,1-.17.36,15.15,15.15,0,0,0,3.67-.87c2.22-.75,4.39-1.47,7.61-.1a.16.16,0,0,1,.08.21.14.14,0,0,1-.2.08c-3.11-1.32-5.22-.62-7.39.1a14.44,14.44,0,0,1-4,.9c-.13,0-.2,0-.22-.13h0a.53.53,0,0,1,.11-.3,2.28,2.28,0,0,0,.17-.35c.07-.22.05-.46-.37-.6-1-.32-2.6.62-3.35,1.05-.28.16-.46.26-.56.19a.15.15,0,0,1-.05-.22c0-.12.24-.91-.44-1a3.12,3.12,0,0,0-1.32.38,5.44,5.44,0,0,1-3.36.57,7.47,7.47,0,0,0-1.44-.13l0,.06h0a1.42,1.42,0,0,1-.32.45,1.82,1.82,0,0,1-.47.31,1.26,1.26,0,0,1-1.33,0,.41.41,0,0,1-.13-.26h0a.46.46,0,0,1,.21-.42,1.7,1.7,0,0,1,.54-.26,5.25,5.25,0,0,1,1.27-.19,1.09,1.09,0,0,0-.39-.8c-.94-1-2.37-.06-3.76.8s-2.55,1.6-3.48,1m7.32-.37a.93.93,0,0,0,.22-.27,4.29,4.29,0,0,0-1.08.17,1.35,1.35,0,0,0-.45.21c-.06,0-.1.1-.09.13s0,0,.05.08.58.12,1-.06A1.48,1.48,0,0,0,43.34,44.35Z"/><path class="cls-8" d="M58.36,20.23a1,1,0,0,0-.79.32v-.3h-.51v2.3h.53V21.39a.62.62,0,0,1,.65-.7c.34,0,.54.2.54.61v1.25h.54V21.23a.89.89,0,0,0-1-1m-7.55,0L50.07,22l-.72-1.71h-.56l1,2.3h.56l1-2.3Zm-2.89,2.3h.54v-2.3h-.54Zm.27-2.68a.33.33,0,1,0,0-.65.34.34,0,0,0-.34.33A.33.33,0,0,0,48.19,19.87Zm-1.54.72v-.34h-.52v2.3h.54V21.44a.64.64,0,0,1,.67-.72l.12,0v-.51A.89.89,0,0,0,46.65,20.59Zm-3.47,1.49V20h.74a1,1,0,1,1,0,2.07Zm-.56.47h1.32a1.51,1.51,0,1,0,0-3H42.62Z"/><path class="cls-8" d="M52.59,20.66a.62.62,0,0,1,.64.47l-1.3.25h0a.64.64,0,0,1,.66-.71m.1,1.47a.72.72,0,0,1-.7-.41l1.77-.34a1.12,1.12,0,0,0-1.17-1.15,1.14,1.14,0,0,0-1.18,1.17,1.16,1.16,0,0,0,1.27,1.18,1.15,1.15,0,0,0,.92-.37l-.28-.33A.88.88,0,0,1,52.69,22.13Z"/><path class="cls-8" d="M55.31,22.12A.72.72,0,1,1,56,21.4a.67.67,0,0,1-.68.72m0,.46a1.18,1.18,0,1,0-1.23-1.18A1.16,1.16,0,0,0,55.31,22.58Z"/><path class="cls-9" d="M53.91,21.23a1.36,1.36,0,0,1,.46-1.17,1.38,1.38,0,0,1,1.27-.32,1.4,1.4,0,0,1,.91,2c-.08.15-.88,1.28-1,1.48,0,0-.12.2-.18.22s-.17-.1-.22-.16l-.68-1a2.19,2.19,0,0,1-.54-1.11m1.51-.77a.61.61,0,1,0,.49.71A.61.61,0,0,0,55.42,20.46Z"/><path class="cls-10" d="M34.09,20.69h2.39v.54H34.09Zm0,1h2.39v.54H34.09Zm0-1.95h2.39v.54H34.09Z"/><path class="cls-2" d="M96.39,54.53h0a1.66,1.66,0,1,1-1.66,1.65,1.66,1.66,0,0,1,1.66-1.65M94,53.6a.83.83,0,1,1-.83.83A.83.83,0,0,1,94,53.6Z"/><path class="cls-4" d="M102.31,37.79l.88.63s.35-1.68.79-3.05a6,6,0,0,0,.14-3.51,1.07,1.07,0,0,0-.8-.61A2.61,2.61,0,0,0,101.23,30,16.55,16.55,0,0,1,97,29.63c-1-.39-2,.63-1.43,2.23s2.82,1.35,2.82,1.35S99,37,102.31,37.79"/><path class="cls-11" d="M98.2,40.54l1-.95.63-.29-.56-1.72,2.44-1.69.59,0,1,3L104,39l.14,1.43s-5.07,2.12-5.78,1.84-.19-1.72-.19-1.72"/><polygon class="cls-12" points="93.78 94.45 96.79 94.94 96.71 98.27 92.27 98.76 91.71 95.22 93.78 94.45"/><path class="cls-13" d="M92.93,98.27h4l.23,2.75H87.53a3.64,3.64,0,0,1,1-1.91c.52-.35,2.46-.5,3.42-.85l-.19-1h.35c.62,0,.8.8.83,1"/><polygon class="cls-12" points="107.25 94.45 110.29 94.94 110.46 98.27 105.92 98.27 104.96 94.06 107.25 94.45"/><path class="cls-4" d="M111.43,61.72S109.9,75.78,110,77.79s.79,7.22.79,11.61c0,2.25,0,5,.08,7.12h-5.73c-1.37-6.21-3.92-17.92-4-19.3-.13-1.9-.56-6.34-.56-6.34s-1.12,5.09-1.35,6,0,3.79-.24,5c-.25,1-1.38,9.87-1.93,14.62H91.57c-.13-6.31-.73-19.74-.59-20.29s2.83-14.59,2.83-14.59Z"/><path class="cls-14" d="M103.53,44.94l7.31-.74A25.2,25.2,0,0,1,112.21,54a114.87,114.87,0,0,1-1,11.45A18.65,18.65,0,0,1,103,66.86a22.82,22.82,0,0,1-9.92-2.71s2-8.28,1.75-12.07,8.66-7.14,8.66-7.14"/><path class="cls-15" d="M104,39s-.14,1.27-2.24,1.71-2.54-1.11-2.54-1.11-4.4,1.08-5.54,2S91,46.56,91,46.56l6.49,3.12,15,3,2.67-5.7s-2.11-5.11-3.49-6.09S104,39,104,39"/><path class="cls-12" d="M96.16,49.26s-3.77,9-6.28,9.81-10.21-5.26-10.21-5.26A4.16,4.16,0,0,1,77,53.53,20.21,20.21,0,0,1,73.42,51Z"/><path class="cls-16" d="M72.83,50.83,75.7,40.1l48.52,13c1,.36,2.44,1.22,1.8,3.62l-1.31,4.88c-.64,2.39-2.28,2.45-3.36,2.23Z"/><path class="cls-17" d="M116.79,51.11l7.43,2c1,.36,2.44,1.22,1.8,3.62l-1.31,4.88c-.64,2.39-2.28,2.45-3.36,2.23l-7.44-2Z"/><rect class="cls-18" x="109.99" y="54.92" width="11.11" height="3.22" transform="translate(31.07 153.53) rotate(-75.02)"/><polygon class="cls-19" points="64.97 42.98 66.91 42.46 66.39 44.4 64.97 42.98"/><polygon class="cls-20" points="66.39 44.4 66.91 42.46 75.7 40.1 72.83 50.83 66.39 44.4"/><path class="cls-4" d="M115.66,62.31l.77-2.88,8.27,2.22c-.66,2.35-2.28,2.4-3.35,2.18Z"/><rect class="cls-21" x="91.59" y="34.16" width="2.98" height="41.12" transform="translate(16.11 130.43) rotate(-74.98)"/><polygon class="cls-16" points="73.6 47.96 72.83 50.83 66.39 44.4 66.53 43.88 73.6 47.96"/><polygon class="cls-22" points="66.53 43.88 66.39 44.4 64.97 42.98 66.53 43.88"/><polygon class="cls-20" points="112.55 61.48 113.32 58.6 114.68 58.97 116.43 59.44 115.66 62.31 113.91 61.84 112.55 61.48"/><path class="cls-12" d="M115.18,47a43.92,43.92,0,0,1,2.14,6.09c.81,3.29-11,6.68-11,6.68a7.29,7.29,0,0,1-3.39.82c-2,0-3.24-2.6-3.24-2.6a29.6,29.6,0,0,1,3.08-.27,9.71,9.71,0,0,1,2.24.3s6.29-5.75,6.41-6.2a11.54,11.54,0,0,0-1.27-2.93Z"/><path class="cls-13" d="M106.61,98l.07.27h4l.44,2.75h-9.69s.19-1.44.86-1.91c.49-.35,2.42-.5,3.35-.85l-.27-1h.42c.46,0,.68.44.77.74"/><path class="cls-12" d="M101.76,34.32s.24-.66.71-.63.86.83.66,1.61-.66,1-.86,1a.89.89,0,0,1-.34-.07,3.7,3.7,0,0,1-.66,1.84,3.79,3.79,0,0,1-2.77,1c-.67-.2-.76-1.84-.89-3a35.15,35.15,0,0,1,0-3.85l1.6.08a2.52,2.52,0,0,0,.51,1.15c.35.27.64.29.81.71a10.56,10.56,0,0,1,.32,1.67l.74-.54Z"/></g></g></svg>