<svg xmlns="http://www.w3.org/2000/svg" viewBox="0 0 120.27 129.21"><defs><style>.cls-1{fill:#e3e0ff;}.cls-1,.cls-12,.cls-13,.cls-14,.cls-2,.cls-3,.cls-4,.cls-5,.cls-6,.cls-7,.cls-8,.cls-9{fill-rule:evenodd;}.cls-2{fill:#fff;}.cls-3{fill:#cfc7ff;}.cls-4{fill:#2678fa;}.cls-5{fill:#78e3cc;}.cls-6{fill:#ffabcc;}.cls-10,.cls-7{fill:#ed87ab;}.cls-8{fill:#5712a6;}.cls-11,.cls-9{fill:#7d21e8;}.cls-12{fill:#26e0fa;}.cls-13{fill:#ed29a1;}.cls-14{fill:#ff737d;}</style></defs><g id="Layer_2" data-name="Layer 2"><g id="Layer_1-2" data-name="Layer 1"><path class="cls-1" d="M59.45,123.18A33.5,33.5,0,1,0,26,89.68a33.57,33.57,0,0,0,33.5,33.5"/><path class="cls-1" d="M43.85,90.13A43.85,43.85,0,1,0,0,46.28,43.94,43.94,0,0,0,43.85,90.13"/><path class="cls-1" d="M86.77,80.7A33.5,33.5,0,1,0,53.28,47.21,33.56,33.56,0,0,0,86.77,80.7"/><path class="cls-2" d="M19.76,27.63h0A1.77,1.77,0,1,1,18,29.4a1.78,1.78,0,0,1,1.77-1.77m2.67,3.1a.88.88,0,1,1-.87.88A.87.87,0,0,1,22.43,30.73Z"/><polygon class="cls-1" points="88.73 2.78 86.32 4.17 83.91 5.57 83.91 2.78 83.91 0 86.32 1.39 88.73 2.78"/><polygon class="cls-1" points="104.62 83.49 104.62 87.23 104.62 90.96 101.38 89.09 98.15 87.23 101.38 85.36 104.62 83.49"/><path class="cls-2" d="M111.5,54.34h0a1.77,1.77,0,1,0,1.77,1.77,1.77,1.77,0,0,0-1.77-1.77m-2.68,3.1a.88.88,0,1,0,.88.87A.88.88,0,0,0,108.82,57.44Z"/><path class="cls-1" d="M19.53,3.3a1.6,1.6,0,1,0-1.6-1.6,1.6,1.6,0,0,0,1.6,1.6"/><polygon class="cls-1" points="17.23 88.97 14.33 90.64 11.43 92.32 11.43 88.97 11.43 85.62 14.33 87.3 17.23 88.97"/><polygon class="cls-2" points="97.72 58.83 97.72 61.01 97.72 63.19 95.83 62.1 93.95 61.01 95.83 59.92 97.72 58.83"/><polygon class="cls-2" points="15.55 60.26 15.55 62.44 15.55 64.62 13.66 63.53 11.78 62.44 13.66 61.35 15.55 60.26"/><path class="cls-3" d="M38.6,48.23h0V64.6A57.31,57.31,0,0,0,35,59.42s1.13-3.77,2.93-8.38a13.39,13.39,0,0,0,.71-2.81M21.39,99.47,23,108c-1.16,1.91-2.21,3.59-2.91,4.7L23,108a4.94,4.94,0,0,0-.49,3.88l.06.06a37.15,37.15,0,0,1,6.45,8.3s5.55,3.6,10.43-4.53L46,120.37c.82.36,1.66.68,2.52,1l3.86-6.46,1.27-.77c6.93-4.2,17.76-10.82,23.28-14.48h.21a7,7,0,0,0,6.93-6.93V91.64c2.19-.73,4.14-1.46,4.34-1.78.44-.74,4.07-5.54,4.38-6.5s.3-2-2.06-4.29A16.07,16.07,0,0,0,92.4,78a3.53,3.53,0,0,0,1-3.64c-.52-1.63-1.55-3.48-1.74-4.06S89.63,69,88,70.12l-.74.45a58.38,58.38,0,0,0,4.39-6.67,3.86,3.86,0,0,0-.82-4.09c-1.33-1.33-3.27-2.63-3.74-3.1s-2-.33-3,.78v-3c.38-.17,1.08-.47,1.91-.86a21.21,21.21,0,0,0,18.15-37.88h0A21.2,21.2,0,0,0,84,13.89a7,7,0,0,0-6.89-6.17H45.53a7,7,0,0,0-6.93,6.93V41.56c-.49-2.79-1.69-4.75-3.76-3.83,0,0-8.18,10.81-9.94,13.89s-1.76,7-1.76,13.17V89.37A22.9,22.9,0,0,1,21.39,99.47Z"/><path class="cls-4" d="M86.79,10.13a21.21,21.21,0,1,1-16.62,25,21.21,21.21,0,0,1,16.62-25"/><path class="cls-5" d="M89.36,30h0m0-.08a3.28,3.28,0,0,0,0,.53l.89.23c.18-.21.1.27.2-.45m15.11,12.59c.21-.32.15-.22.61-.31s1.6-.22,1.69-.72c-1.16.34-1.21,1.06-2.8.35a3.19,3.19,0,0,0-3.06-.1c-.35-.33-.1-.15-.29-.48l-.71,0,.32.79s0,.06,0,.08a5.8,5.8,0,0,1,1.67.22l-.59.7c1.46.46,1.14.18,1.81-.18.85-.45.91.19,1.88.25C105.9,43.21,105.66,43.23,105.57,42.87Zm-2.22-13.12c-2,1.21-.88.53-1.72.7a.87.87,0,0,0-.18,1.69c.41-.93.21-.63,1.1-.91l1.35-.5c-.09-1.36.36-2-.63-2.22A2.23,2.23,0,0,1,103.35,29.75Zm-4.6,7.92c0,.47-.23.23-.22.79,0,.39.19-.1-.23.61a2.62,2.62,0,0,1,.93.73c.36-.57.69-.57.47-1.38a.79.79,0,0,0-.09-.26l-.35-.57c-.2-.34-.19-.25-.51-.44-.6-.37-.24-.51-.46-1-.75,0-.61.88-.51,1.12C98.07,38,98.27,37.53,98.75,37.67ZM74.69,41.12c0,.9-.2,1,.27,1.52.29.34.44.66,1,.76a5.57,5.57,0,0,0-.19-2.95c-.33.21-.25.33-.45.49s-.09.08-.33.14ZM96.53,29.46c.57-.63.85-.23.79.58-.82,0-1.42-.23-1.52.83-.27.28.28.32-.39.21-.06-.12,0,0-.09-.29l0-.69c.05-.34.15-.7.23-1,.84.3.13-.18.49.63ZM96.46,31s-.23.11,0-.36.51-.29.79-.23C97.13,30.93,96.9,31.18,96.46,31Zm.83,10.58c.39-.45,1.22-.14,1.87-.35,0,0,.2-.32-1-.28a5.07,5.07,0,0,0-1,.16l-.39,1.79.66-.14c.77-.11.67.08.75-1Zm5.95-14.34L103,28c1,.18,1.13.41,1.45-.49a2.63,2.63,0,0,0-1.53-.84ZM78.51,14.11a4.26,4.26,0,0,0,1.77-1.31C79.27,13.46,78.86,13.34,78.51,14.11ZM97.94,34.85c.46.08.56-.65.56-.68,0-.49,0-.18-.27-.3A.79.79,0,0,0,97.94,34.85Zm0,9.33A5.06,5.06,0,0,1,99,44s-.13-.39-.66-.22C98.06,43.82,98.07,43.93,98,44.18Zm1.66-2.59c.41-.07.45-.18.63-.66C99.78,41,99.59,41,99.61,41.59Zm.66,2.11c.47-.07.22,0,.47-.28a2.57,2.57,0,0,0-.29-.28C100.28,43.37,100.21,43.41,100.27,43.7ZM97,38.94c.42-.11.58-.15.71-.65-.41.16-.44.27-.71.65a6.32,6.32,0,0,1-1.52,1.23c-.42.16-.62.11-1,.38-.79.64-.27.15-.78.43,0,.43,0,.25.25.7.48,1.09,1.14.94,2,.2a2.35,2.35,0,0,0,1-2.16C96.85,39.31,96.65,39.42,97,38.94Zm2.91,3.43a.48.48,0,0,0,.78-.21C100.3,42.1,100.23,42.18,99.87,42.37Zm-1.22.19a.94.94,0,0,0,.77-.23l.13-.15A1.22,1.22,0,0,0,98.65,42.56Zm-22-27.29c.19-.18.39-.35.59-.52l.45-.13C77.19,14.91,77.29,15.11,76.65,15.27Zm27.69,32.12a21.35,21.35,0,0,1-6.73,3.68l-.15-.25a2,2,0,0,0-1.8.48,5.24,5.24,0,0,1-.57.22l-1.11.4c-.41.06-.81.1-1.22.14a8.92,8.92,0,0,1,.49-2.93c.54-1.46.29-1.25,1.63-1.69A11,11,0,0,0,96,47c.74-.34.22-.23,1.35-1.09.21-.16.23-.25.43-.4.74-.56.41-.06.92.09.76-.53,1.3-1.63,2.91-1-.46.43-.42.64-.21,1.22.67.07.9-.18,1.23-.69a7.36,7.36,0,0,1,.91-1.25.2.2,0,0,1,0,.09l0,.45c.14.61.22,0,.27.87C103.93,46.38,104.39,46.87,104.34,47.39Zm4.53-5.1-.15.23c-.22,0-.2,0-.44-.28.38-.1.07-.12.32,0ZM87.41,10a22.25,22.25,0,0,1,2.41-.28c.12.3-.24.84-.36,1.23.4-.13.23-.06.56-.3l.31.41.59-.32c.36.21.33.31.86.38.18-.34.13-.66.4-.82a.87.87,0,0,1,.83.1c.33.28.07.95.88,1.35l.06-.19c.2-.54.39-.58,1.25-.72,0-.31,0-.54.06-.71a21.3,21.3,0,0,1,2.63.73L98,11l0-.06c.53.19,1.06.4,1.57.63a1.19,1.19,0,0,0,.27.34,1.07,1.07,0,0,0,.27-.09A21.46,21.46,0,0,1,107,17l0,.13c-.53-.33-1-1.25-1.58-1.16-.28.9,1.12,1.69,1.48,2.42-.75.23-.51.63-.56,1.5a1.41,1.41,0,0,0-1.14-.27c-.33,1,.41.84,1,2.33.49,1.17.2,1.66,0,3-.15-.32-.12-.65-.28-1-.4-.8-.91-.91-1.47-2.21-.41-1-.14-1.19-.06-2.29.1-1.47-.42-.93-.92-.82-.16-.33-.2-.86-.73-.55s.09,1.11.22,1.62c-1.12-.24-1.24-.91-2.65-.43-.72.24-.91,1.8-.68,2.52a8.1,8.1,0,0,0,2.4,1c.54,1.92,1.32,2,.9,2.43l-.14.09.51.77a1.63,1.63,0,0,1,.15.27c-.65-.14-.61-.29-.84-.8l-.37-1a14.11,14.11,0,0,0-.5,1.62c-.18.5-.4,1-.57,1.44l-.81-.11a3.41,3.41,0,0,0-.89,1.26c.31.49,1,.94,1,1.65-.5.23-1.15.35-1.32-.43l-.22-.68c-.16-.36,0-.37-.25-.56-.89-.41-.18.07-1,.11l-.31-.72c-.7.09-.72.54-.75.41s0,0-.05,0c0,.3,0,.21.05.43.45,0,1.41.22,1.18.84l-.13.83-.06.18c.46.46.08.32.36.93s.34.46-.46,1.5c-.33.43-.19.39-.39.83l-1.31.32-1,.29v.73a2.65,2.65,0,0,1-.82.16,1.46,1.46,0,0,0,.28-.77,1.2,1.2,0,0,0-1.36.15c-.17.71.14.72.54,1.11s1.35,1.07.15,1.85a7.75,7.75,0,0,1-1,.57c0-.72.06-.43-.52-.84-.31-.23-.48-.55-1-.59-.45.74.27,1.69.56,2.09,1,1.4.31,1.49.06,1.72,1,.86.63,1,.93,2.09a13.69,13.69,0,0,0,5.07.81l-.24.1a2.09,2.09,0,0,0-.3.14c-.26.14-.27.23-.54.39-.56-.32-.13-.39-1.11-.52-2-.24-1.74,0-3.66-1.14-.69-.4-.79-1.05-1.18-1.8-.94-1.82-.5-.8-1.26-1.61.85-.28,1.25.94,1.9.89,0-.52-.63-1.14-.63-2.19a3.21,3.21,0,0,0-.11-1.43c-.12-.41-.11-.71-.48-1-.5.14-.41.21-.8.45l-.42-1.54-.26-.24c-.19-.19-.1-.17-.34-.28a3.11,3.11,0,0,0-1.14-.14C87,34.2,86,34.65,85.71,35c-.67.73-.81.13-1.18,1.45A2.89,2.89,0,0,1,84,37.71c-.93-.21-.73-1.39-1.06-2.13-.52-1.15-.5-1.87-1.76-2.2-.32-1.17-1.81-1.65-3.26-1.82-.83-.09-.59-.14-1.09-.35A8.57,8.57,0,0,0,75.71,31c-.91-.24-1.2-.78-1.77-.84a1.12,1.12,0,0,0,.56.73c.55.38.3.14.67.62.65.14,1.19-.14,1.63.21.19.16.12.26.46.49s.2,0,.52.36c-.37,1.45-3.58,1.52-5.17,1.28.26.74.42.57,1.22.71l1.39.17a.81.81,0,0,1-.36,1A9,9,0,0,1,72.71,37l-.46.28c.08,1,1.09,1.66,1,2.55-.43.31-.67.17-1,.39.18.57.31.4.59.9-.37.52.43-.47-.2.17l-.06.12a21.06,21.06,0,0,1-2.34-6.3,21.32,21.32,0,0,1-.42-4.33,5.57,5.57,0,0,1,.85,1,3.56,3.56,0,0,0,1.7,1.59,1.4,1.4,0,0,0-.54-1.13l-1.5-1.77c-.18-.22-.27-.42-.49-.55A21.91,21.91,0,0,1,70.12,27a3.43,3.43,0,0,0,.56.07c.55,0,.62-.08.78-.44a3.24,3.24,0,0,1-1-.36l-.14-.11a21.44,21.44,0,0,1,2.06-5.41,1.11,1.11,0,0,0,.28-.29l-.14,0,.3-.5c0,.1.06.21.42.24.35-.19.26-.48.79-.91l.43.23s0,0,.07.05a10.37,10.37,0,0,1,1.76-.93c.67-.16,1.55-.26,1.78-.95a14.13,14.13,0,0,0-2,.15c.18-.76,2.69-2.79,3.43-3.17.49-.25.71-.74,1.26-.79-.23.61-.42.49-.91.84s-2.77,1.88-2.5,2.67a3.88,3.88,0,0,0,2.47-.29c0-.08.26-1.87,1.37-1.82.27.41-.07.2.27.62l.06-.07.29-.63c.55.39.52,0,.94-.25l.08,0c.26-.11.14.05.55-.09-.12-.41-.4-.45.09-.81a3.79,3.79,0,0,0,.78-.5c.36-.35.51-.86,1.09-1.43s1.16-.76,1.46-1.09A6.46,6.46,0,0,0,87.41,10Z"/><path class="cls-2" d="M91.43,35.34c1.68,0,3.06-.27,3.06-.61s-1.38-.62-3.06-.62-3.07.28-3.07.62,1.38.61,3.07.61"/><path class="cls-6" d="M19.75,97,13,108.92c-1.16,1.91-2.21,3.59-2.9,4.71l2.9-4.71a5.11,5.11,0,0,0-.39,4.22,5.71,5.71,0,0,0,1.59,2.18c3.58,3.16,19.27,13.1,19.27,13.1S39,132,43.89,123.88l10.58-17.71-16.37-2.1Z"/><path class="cls-7" d="M82.06,85.38s-.65,6.84-3.51,9.47-32.89,20.64-32.89,20.64L31.75,70.56,73,48.49v2.69h4.06s1.1-.12,1.52.24-.66,12.66-.66,12.66l-3,13.77,1.66,1.63Z"/><path class="cls-6" d="M77.58,95.61c-5.92,4.28-31.92,19.88-31.92,19.88l-3.09-10,3-7.29v3.65s.78,2.81,2.93,3,29-9.31,29-9.33"/><path class="cls-6" d="M79.48,41.22l8.34-1.48A3.58,3.58,0,0,1,91.33,42c.88,2.41,1,4.5-1.21,6.09a59.75,59.75,0,0,1-8,4.06Z"/><path class="cls-8" d="M43.9,5.25H75.5a7,7,0,0,1,6.93,6.93V90.25a7,7,0,0,1-6.93,6.93H43.9A7,7,0,0,1,37,90.25V12.18A7,7,0,0,1,43.9,5.25"/><path class="cls-2" d="M44.3,7.85h4.34v.71a2.83,2.83,0,0,0,2.82,2.82H67.94a2.83,2.83,0,0,0,2.81-2.82V7.85h4.34A4.87,4.87,0,0,1,80,12.7V90.18A4.88,4.88,0,0,1,75.09,95H44.3a4.87,4.87,0,0,1-4.85-4.86V12.7A4.86,4.86,0,0,1,44.3,7.85"/><path class="cls-1" d="M80,31.48v58.7A4.88,4.88,0,0,1,75.09,95H44.3a4.87,4.87,0,0,1-4.85-4.86V31.48a4.86,4.86,0,0,1,4.85-4.85H75.09A4.87,4.87,0,0,1,80,31.48"/><path class="cls-3" d="M80,31.48v3.18H73.47l-1.6,6H49.19l3.75-14H75.09A4.87,4.87,0,0,1,80,31.48"/><path class="cls-9" d="M42.43,17.48h2.72v.61H42.43Zm0,1.11h2.72v.61H42.43Zm0-2.22h2.72V17H42.43Z"/><polygon class="cls-5" points="46.44 40.62 48.08 34.51 43.76 34.51 42.12 40.62 46.44 40.62"/><polygon class="cls-5" points="63.95 48.68 60.07 48.68 58.57 54.28 64.82 54.28 65.81 50.55 66.32 48.68 63.95 48.68"/><polygon class="cls-5" points="72.39 41.59 69.33 53.03 73.49 53.03 75.47 45.65 75.98 43.72 76.61 41.37 76.81 40.62 76.46 40.62 74.95 40.62 72.66 40.62 72.39 41.59"/><polygon class="cls-5" points="76.85 57.05 68.25 57.05 66.45 63.78 75.05 63.78 76.85 57.05"/><polygon class="cls-5" points="63.89 63.64 48.12 63.64 44.54 69.84 53.58 78.87 60.59 78.87 63.89 63.64"/><path class="cls-2" d="M80,53v4H68.25L58.07,95H53.9l3.61-13.49H39.45v-4H58.59l13.63-50.9h2.87a4.86,4.86,0,0,1,1.27.17L69.33,53Z"/><polygon class="cls-3" points="74.29 75.23 71.63 75.23 66.99 75.23 64.78 83.48 64.53 84.38 71.84 84.38 74.29 75.23"/><path class="cls-2" d="M53.19,72.63c1.69,0,3.06-.28,3.06-.62s-1.37-.62-3.06-.62-3.06.28-3.06.62,1.37.62,3.06.62"/><polygon class="cls-3" points="47.27 54.28 39.45 54.28 39.45 50.25 48.35 50.25 47.27 54.28"/><path class="cls-6" d="M33.2,35.27S25,46.08,23.26,49.16s-1.75,7-1.75,13.17V86.91A22.82,22.82,0,0,1,19.75,97a56.86,56.86,0,0,1-4.87,8.58l30.78,11.7V85.15a37,37,0,0,0-4.84-16.68C36,60.13,33.32,57,33.32,57s1.14-3.77,2.94-8.38,1.27-15.23-3.06-13.31"/><path class="cls-6" d="M38.36,114.52l7.3,2.77V97.19c0,.2-.06,6.64-2.49,10.28-.71,1.08-2.56,3.77-4.81,7"/><path class="cls-6" d="M81.79,55.91s-3.89,6.28-4.5,8.46.27,4.77,1.77,5.52,3.62,1.3,4.91.2,5.69-7.67,6.07-8.65a3.88,3.88,0,0,0-.82-4.09C87.89,56,86,54.72,85.47,54.24s-2.69-.27-3.68,1.67"/><path class="cls-6" d="M88.84,76.37S74.58,84.06,73.42,85.1s-1,3.44,0,4.83a2.3,2.3,0,0,0,2.65,1.16c.79-.14,10.21-3,10.65-3.7s4.08-5.53,4.39-6.49.29-2.1-2.31-4.53"/><path class="cls-6" d="M86.39,67.66s-5.73,3.45-7.13,5-1.75,4-.85,5.19,2.38,2.54,3.88,2.2a49.79,49.79,0,0,0,8.48-4.48,3.53,3.53,0,0,0,1-3.64c-.53-1.63-1.56-3.48-1.75-4.06S88,66.5,86.39,67.66"/><path class="cls-7" d="M88.57,77.18S84.85,79.12,83,80l-.32-.69c1.87-.89,5.56-2.81,5.57-2.82Z"/><path class="cls-7" d="M81.92,70.32c1.5,0,2-.68,2.88-1.74l.17-.21.6.47-.17.21c-1,1.24-1.62,2-3.48,2Z"/><rect class="cls-10" x="29.49" y="52.92" width="0.77" height="5.77" transform="translate(-31.45 71.49) rotate(-76.18)"/><path class="cls-7" d="M46.47,97.7a21.06,21.06,0,0,1-7,6.43l-.4-.65a20.16,20.16,0,0,0,6.75-6.17Z"/><path class="cls-11" d="M68.22,16.61a1.1,1.1,0,0,0-.88.36v-.33h-.57V19.2h.6V17.91a.68.68,0,0,1,.71-.78c.39,0,.61.22.61.68V19.2h.6V17.73a1,1,0,0,0-1.07-1.12m-8.4,0L59,18.54l-.8-1.9h-.62l1.1,2.56h.62l1.09-2.56ZM56.61,19.2h.6V16.64h-.6Zm.3-3a.37.37,0,0,0,.38-.38.35.35,0,0,0-.38-.34.36.36,0,1,0,0,.72ZM55.19,17v-.37h-.57V19.2h.6V18a.69.69,0,0,1,.74-.79h.14v-.57A1,1,0,0,0,55.19,17Zm-3.85,1.66v-2.3h.81a1.15,1.15,0,1,1,0,2.3Zm-.63.53h1.47a1.69,1.69,0,1,0,0-3.36H50.71Z"/><path class="cls-11" d="M61.8,17.09a.7.7,0,0,1,.71.52l-1.44.28h0a.72.72,0,0,1,.73-.8m.11,1.64a.77.77,0,0,1-.77-.46l2-.38a1.24,1.24,0,0,0-1.3-1.28,1.27,1.27,0,0,0-1.32,1.31,1.45,1.45,0,0,0,2.45.9l-.32-.37A1,1,0,0,1,61.91,18.73Z"/><path class="cls-11" d="M64.83,18.72a.8.8,0,1,1,.76-.8.74.74,0,0,1-.76.8m0,.51a1.31,1.31,0,1,0-1.37-1.31A1.28,1.28,0,0,0,64.83,19.23Z"/><path class="cls-12" d="M63.26,17.73a1.59,1.59,0,0,1,.53-1.31,1.56,1.56,0,0,1,2.41,1.92c-.08.16-1,1.42-1.13,1.64a.9.9,0,0,1-.2.26c-.12.05-.19-.12-.24-.19L63.87,19a2.47,2.47,0,0,1-.61-1.23M65,16.88a.68.68,0,0,0-.25,1.33.69.69,0,0,0,.8-.55A.68.68,0,0,0,65,16.88Z"/><path class="cls-2" d="M84.61,18.63a8.41,8.41,0,0,1,2,1.1l.74-1a9.46,9.46,0,0,0-2.29-1.26ZM81.22,18a10.4,10.4,0,0,1,2.29.28l.29-1.19a11,11,0,0,0-2.56-.31Zm-3.5.41,2.33-.37L80,16.83l-2.51.39Zm-3.35,1.16,2.21-.85-.36-1.17-2.36.91Zm-3.1,1.78,2-1.24L72.73,19l-2.15,1.32Zm-2.8,2.25,1.83-1.55-.74-1L67.64,22.7ZM66,26.2l1.63-1.76-.86-.87L65,25.4Zm-2.2,2.87,1.44-1.94-1-.76-1.49,2Zm-1.92,3.07,1.25-2.07-1-.66-1.29,2.12Zm-1.67,3.23,1.08-2.17-1.08-.58-1.11,2.23Zm-1.43,3.34.93-2.24L58.56,36l-1,2.29Zm-1.22,3.43.79-2.29-1.15-.43-.81,2.35Zm-1,3.5.67-2.33L56,43l-.67,2.38Zm-.85,3.55.55-2.37L55,46.53l-.56,2.41ZM55,52.78l.44-2.39-1.2-.25-.45,2.43Zm-.55,3.62L54.76,54l-1.21-.19-.36,2.44Zm-.33,2.66.17-1.45L53,57.45l-.18,1.47ZM87.47,20.47a6.73,6.73,0,0,1,1.33,1.78h0l1.12-.5a7.6,7.6,0,0,0-1.59-2.14Z"/><path class="cls-13" d="M53,69.75h.61c.23,0,.38-.31.49-.46l1.77-2.55c.22-.32.71-1,.88-1.27a3.57,3.57,0,0,0,.54-1.61A3.67,3.67,0,1,0,50.4,65.3c.2.37,2.29,3.31,2.64,3.83l0,0H53Zm.35-7.89a1.6,1.6,0,0,1,1.85,1.3,1.59,1.59,0,1,1-1.85-1.3Z"/><path class="cls-14" d="M56.62,63.86h0a3.62,3.62,0,0,0-1.21-3.06,3.67,3.67,0,0,0-5.66,4.5c.2.37,2.28,3.31,2.64,3.83.1.15.33.54.47.6s.45-.27.58-.44l1.77-2.55c.22-.32.7-1,.88-1.27a3.69,3.69,0,0,0,.53-1.61m-3.93-2a1.59,1.59,0,1,1-1.29,1.83A1.58,1.58,0,0,1,52.69,61.86Z"/><path class="cls-13" d="M91.21,32.66h.61c.23,0,.38-.31.49-.46l1.77-2.55c.22-.32.71-1,.88-1.27a3.57,3.57,0,0,0,.54-1.61,3.67,3.67,0,1,0-6.88,1.44c.2.37,2.29,3.31,2.64,3.83l0,0h-.08Zm.35-7.89a1.59,1.59,0,1,1-1.28,1.83A1.59,1.59,0,0,1,91.56,24.77Z"/><path class="cls-14" d="M94.84,26.77h0A3.67,3.67,0,1,0,88,28.21c.2.37,2.29,3.31,2.64,3.83a2.41,2.41,0,0,0,.47.6c.28.11.45-.27.58-.44l1.77-2.55c.22-.32.7-1,.88-1.27a3.69,3.69,0,0,0,.53-1.61m-3.93-2a1.59,1.59,0,0,1,.57,3.12,1.59,1.59,0,1,1-.57-3.12Z"/></g></g></svg>